<svg width="1600" height="1600" viewBox="0 0 1600 1600" fill="none" xmlns="http://www.w3.org/2000/svg">
<g clip-path="url(#clip0_6_12)">
<path fill-rule="evenodd" clip-rule="evenodd" d="M492.188 0H626.563C656.29 18.557 651.373 27.092 686.072 35.42C957.8 100.633 955.8 348.808 964.6 353.529C970.233 356.55 1010.5 378.15 1012.68 417.341C1017.22 499.266 942.755 499.207 947.683 511.188C952.364 522.571 990.439 615.146 897.954 656.775C869.227 669.705 877.868 677.252 871.115 708.003C831.779 887.134 706.761 929.948 698.929 933.881C689.836 938.447 693.611 956.823 694.927 958.173C717.086 980.911 734.471 927.164 907.997 1007.34C916.239 1011.15 1082.74 840.047 1081.78 836.065C1050.49 707.194 1169.9 720.14 1186.16 725.979C1216.46 736.866 1214.82 740.907 1476.31 1004.94C1568.07 1097.61 1484.82 1178.95 1401.73 1154.15C1393.26 1151.62 1360.05 1188.63 1355.83 1193.05C1352.65 1196.4 1373.19 1216.94 1375 1218.75C1584.13 1427.88 1583.57 1429.44 1600 1464.06V1517.19C1597.48 1522.03 1596.93 1521.32 1595.15 1526.5C1576.39 1580.97 1530.8 1591.82 1517.19 1600H1464.06C1424.61 1581.22 1424.19 1581.18 1203.44 1359.07C1191.82 1347.38 1151.93 1394.13 1154.15 1401.73C1185.36 1508.66 1071.04 1539.27 1023.91 1494.76C997.553 1469.87 999.321 1466.62 989.079 1466.55C722.669 1464.84 80.227 1470.74 55.13 1462.67C19.548 1451.21 9.17902 1422.01 -0.000976562 1404.69V1329.69C5.36502 1298.96 21.528 1082.66 255.171 987.184C316.824 961.991 406.854 960.125 420.236 959.847C430.316 959.638 427.993 937.153 422.544 934.365C388.184 916.787 298.548 884.329 253.113 726.165C240.948 683.818 256.754 671.47 220.985 656.383C129.654 617.86 168.049 522.053 172.618 510.65C175.055 504.57 91.38 484.451 108.997 408.094C119.157 364.061 159.965 355.635 161.371 345.374C162.22 339.178 163.575 144.244 367.079 57.565C435.122 28.583 443.883 44.969 467.596 17.563C469.178 15.735 471.345 13.232 492.188 0L890.657 521.864C864.818 504.151 862.537 506.594 510.937 506.594C246.406 506.594 228.492 498.911 215.364 545.663C197.664 608.696 278.918 612.701 287.953 624.26C292.45 630.013 293.496 898.528 542.221 906.283C819.854 914.94 823.84 666.041 827.322 636.074C830.289 610.542 865.204 613.915 879.033 606.631C931.528 578.98 894.639 527.432 890.656 521.866L492.186 0.002L759.804 1230.89C748.146 1226.62 748.496 1226.71 735.936 1226.71C244.88 1226.55 240.346 1226.81 240.158 1232.9C240.124 1234 240.086 1407.3 240.177 1407.7C241.407 1413.18 270.74 1413.18 273.436 1413.18C883.224 1413.19 882.837 1414.95 935.81 1413.62C943.813 1413.42 936.236 1407.16 759.804 1230.89L492.186 0.002L937.762 1059.64C914.346 1083.03 879.336 1115.08 882.634 1120.42C884.256 1123.04 1113.01 1351.43 1113.8 1351.9C1119.58 1355.33 1121.32 1352.38 1322.73 1150.86C1325.39 1148.2 1355.15 1118.42 1353.15 1115.03C1340.12 1092.79 1335.53 1096.76 1125.49 887.012C1118.91 880.435 1117.52 879.691 1111.09 886.095C1020.24 976.614 951.589 1045.72 937.761 1059.64L492.185 0.002L805.941 150.019C800.899 146.218 769.815 122.783 738.594 108.863C733.177 106.448 673.775 79.963 667.149 89.046C665.855 90.82 666.637 341.956 666.716 342.298C668.397 349.52 905.57 349.474 905.107 342.252C897.873 229.396 819.039 161.328 805.941 150.019L492.185 0.002L281.276 181.462C273.026 192.372 222.15 259.646 215.198 339.152C214.387 348.433 220.957 346.666 426.56 346.661C444.606 346.661 453.175 353.891 453.337 335.938C453.515 316.144 455.537 91.656 452.323 88.506C446.538 82.838 390.445 104.815 380.327 109.374C326.737 133.521 288.019 174.351 281.275 181.463L492.184 0.003L950.29 406.207C934.764 398.702 934.655 400.044 917.184 400.112C903.979 400.163 196.077 399.994 185.826 400.226C161.674 400.773 148.982 434.784 174.23 450.073C189.897 459.56 863.499 453.851 923.434 453.343C962.062 453.016 968.498 429.611 950.29 406.207L492.184 0.003L1537.52 1519.35C1539.55 1514.65 1553.77 1481.73 1534.97 1455.41C1530.81 1449.58 1318.61 1237.69 1316.79 1236.79C1310.7 1233.75 1236.7 1312.2 1236.59 1314.14C1236.28 1319.76 1454.27 1534.11 1455.41 1534.97C1493.24 1563.65 1532.79 1524.08 1537.52 1519.35L492.184 0.004L662.493 1071.59C588.135 1153.09 467.354 1131.33 431.296 1020.71C428.098 1010.9 410.228 1011.89 379.726 1014.34C367.775 1015.3 369.906 1021.87 373.292 1164.07C373.565 1175.55 380.514 1173.58 626.559 1173.58C681.677 1173.58 721.292 1176.61 720.809 1167.18C717.692 1106.44 746.3 1108.39 746.563 1092.32C747.714 1021.85 746.144 1014.98 742.11 1014.36C737.97 1013.73 694.064 1006.99 689.851 1017.55C678.502 1045.99 680.514 1046.5 662.494 1071.59L492.185 0.004L175.304 1096.9C27.62 1225.89 49.751 1396.5 62.213 1406.39C76.129 1417.44 185.344 1416.1 186.73 1407.94C190.428 1386.17 187.326 1120.13 187.034 1095.1C186.943 1087.32 176.037 1096.29 175.304 1096.9L492.185 0.004L523.435 346.663C563.092 346.662 612.731 348.984 613.054 342.023C613.228 338.264 613.228 61.743 613.054 57.985C612.7 50.339 507.011 50.88 506.788 57.545C506.504 66.019 506.504 333.988 506.788 342.462C506.949 347.262 509.069 345.189 523.436 346.662L492.186 0.002L781.291 1137.67C761.646 1166.03 775.963 1171.78 920.829 1316.67C1048.13 1444 1080.86 1488.41 1103.27 1447.61C1116.39 1423.72 1105.69 1419.43 901.035 1214.58C825.619 1139.1 812.024 1113.67 781.291 1137.67L492.186 0.002L1137.66 781.29C1114.73 810.641 1131.01 817.296 1261.55 947.833C1407.87 1094.15 1435.34 1132.97 1458.11 1092.36C1470.97 1069.42 1460.85 1064.92 1251.12 855.128C1184.97 788.96 1168.08 760.365 1137.66 781.29L492.186 0.002L612.695 1046.88C617.904 1040.77 634.023 1029.51 639.489 995.367C644.15 966.256 649.99 951.411 620.448 955.518C543.493 966.217 498.604 954.441 485.901 953.226C458.602 950.615 495.857 1126.76 612.695 1046.88L492.186 0.002L258.502 1043.74C229.659 1058.86 240.158 1066.42 240.129 1098.44C240.102 1127.8 237.538 1173.05 245.345 1173.2C297.342 1174.24 319.757 1174.28 319.846 1167.15C321.549 1031.03 325.384 1022.21 314.216 1024.57C299.438 1027.69 300.085 1028.52 258.502 1043.74L492.186 0.002L843.796 1078.14C866.522 1054.62 878.72 1052.74 866.661 1046.24C860.866 1043.13 828.948 1030.04 804.631 1024.27C797.761 1022.64 796.76 1073.55 804.872 1075.47C834.774 1082.57 840.994 1079.52 843.796 1078.14L492.186 0.002L492.188 0Z" fill="#71717B"/>
</g>
<defs>
<clipPath id="clip0_6_12">
<rect width="1600" height="1600" fill="white"/>
</clipPath>
</defs>
</svg>
