<svg width="851" height="216" viewBox="0 0 851 216" fill="none" xmlns="http://www.w3.org/2000/svg">
<path d="M75.8766 11.5359C117.87 -17.8152 155.178 17.8926 157.182 19.6482C157.875 20.2544 162.556 16.752 162.982 16.4333C167.584 12.9907 170.81 21.3693 169.818 22.2058C167.451 24.2018 149.572 39.2761 139.463 46.1941C137.555 47.4988 135.564 37.2053 124.932 25.0476C95.5719 -8.5271 53.7451 25.8978 81.2429 50.1472C85.8544 54.214 91.3794 59.0855 152.965 77.6521C154.508 78.1169 155.534 75.1349 173.933 52.2771C179.07 45.8959 179.728 42.1976 183.908 44.7751C190.097 48.5915 184.989 49.8779 180.528 55.6912C163.183 78.2942 162.941 78.0874 161.435 80.0535C159.321 82.8187 210.492 93.9874 198.048 136.43C189.686 164.946 151.759 194.09 146.674 197.997C130.73 210.249 129.982 212.01 126.686 209.299C123.544 206.713 101.72 188.756 83.0651 183.166C80.2592 182.325 80.1825 183.656 57.03 212.926C54.5254 216.092 52.8943 215.384 44.903 216C44.6049 214.022 66.9568 187.542 71.6022 181.409C73.223 179.269 57.3361 178.451 48.4108 180.303C22.0482 185.774 7.5982 204.839 2.35907 210.97C-0.169813 213.93 0.141373 208.577 0.0778198 207.38C-0.449899 197.439 1.64356 197.832 8.33075 190.511C44.983 150.387 85.5 161.711 87.7585 160.754C89.3949 160.058 111.423 131.598 113.422 129.015C118.864 121.983 25.26 129.69 45.8444 36.3816C46.4902 33.4545 53.3789 33.948 53.3239 36.9109C52.5914 76.2642 61.5595 83.4323 95.4587 96.6599C98.1028 97.6917 112.834 103.441 129.187 107.659C130.046 107.881 130.525 108.003 136.756 99.533C139.333 96.0298 92.2845 90.5022 74.7311 73.2839C44.0413 43.1795 70.8214 15.7011 75.8766 11.5359ZM144.743 101.811C144.408 102.117 137.851 109.618 138.49 110.453C139.128 111.286 183.929 122.639 169.413 150.349C168.352 152.375 166.522 155.865 150.291 171.575C148.755 173.059 142.736 167.32 144.762 166.086C174.822 147.785 148.162 138.561 123.933 130.793C121.779 130.102 121.798 131.224 98.1599 160.792C97.8344 161.199 97.3596 161.867 97.2917 161.963C95.9475 163.854 98.1116 162.876 100.138 163.995C129.46 171.786 145.155 187.898 148.109 185.4C179.276 159.05 184.926 152.497 183.387 132.772C181.704 111.194 144.919 101.651 144.743 101.811Z" fill="#374282"/>
<path d="M227.517 82.0001H225.011L234.535 55.8183H237.092L246.616 82.0001H244.11L235.903 58.9248H235.724L227.517 82.0001ZM229.319 71.9646H242.308V74.1123H229.319V71.9646ZM257.7 82.4092C256.089 82.4092 254.678 81.9831 253.468 81.1308C252.258 80.2785 251.312 79.0896 250.63 77.564C249.957 76.0385 249.62 74.2615 249.62 72.2331C249.62 70.2132 249.957 68.4447 250.63 66.9277C251.312 65.4021 252.262 64.2175 253.481 63.3737C254.7 62.5214 256.119 62.0953 257.738 62.0953C258.931 62.0953 259.924 62.3084 260.717 62.7345C261.509 63.1521 262.144 63.672 262.622 64.2942C263.099 64.9163 263.47 65.5214 263.734 66.1095H263.938V55.8183H266.227V82.0001H264.002V78.3567H263.734C263.47 78.9532 263.095 79.5669 262.609 80.1976C262.123 80.8197 261.48 81.3439 260.678 81.77C259.886 82.1961 258.893 82.4092 257.7 82.4092ZM257.968 80.3254C259.238 80.3254 260.321 79.9802 261.215 79.2899C262.11 78.591 262.792 77.6322 263.261 76.4135C263.738 75.1862 263.977 73.78 263.977 72.1947C263.977 70.6265 263.742 69.2416 263.274 68.0399C262.805 66.8297 262.123 65.8836 261.228 65.2018C260.333 64.5115 259.247 64.1663 257.968 64.1663C256.656 64.1663 255.548 64.5243 254.644 65.2402C253.749 65.9476 253.068 66.9064 252.599 68.1166C252.139 69.3268 251.909 70.6862 251.909 72.1947C251.909 73.7203 252.143 75.0967 252.612 76.324C253.08 77.5513 253.762 78.5271 254.657 79.2515C255.561 79.9675 256.664 80.3254 257.968 80.3254ZM287.909 62.3638L280.737 82.0001H278.308L271.136 62.3638H273.603L279.433 78.9959H279.612L285.441 62.3638H287.909ZM299.29 82.4092C297.594 82.4092 296.094 81.9788 294.79 81.118C293.494 80.2572 292.48 79.0683 291.747 77.5513C291.014 76.0257 290.648 74.2657 290.648 72.2714C290.648 70.2601 291.014 68.4916 291.747 66.966C292.48 65.4319 293.494 64.2388 294.79 63.3865C296.094 62.5257 297.594 62.0953 299.29 62.0953C300.986 62.0953 302.481 62.5257 303.777 63.3865C305.072 64.2473 306.086 65.4405 306.819 66.966C307.561 68.4916 307.932 70.2601 307.932 72.2714C307.932 74.2657 307.565 76.0257 306.832 77.5513C306.099 79.0683 305.081 80.2572 303.777 81.118C302.481 81.9788 300.986 82.4092 299.29 82.4092ZM299.29 80.3254C300.653 80.3254 301.808 79.9589 302.754 79.226C303.7 78.493 304.416 77.5172 304.902 76.2984C305.396 75.0797 305.643 73.7373 305.643 72.2714C305.643 70.8055 305.396 69.4589 304.902 68.2317C304.416 67.0044 303.7 66.02 302.754 65.2785C301.808 64.5371 300.653 64.1663 299.29 64.1663C297.935 64.1663 296.78 64.5371 295.825 65.2785C294.879 66.02 294.159 67.0044 293.665 68.2317C293.179 69.4589 292.936 70.8055 292.936 72.2714C292.936 73.7373 293.179 75.0797 293.665 76.2984C294.159 77.5172 294.879 78.493 295.825 79.226C296.771 79.9589 297.926 80.3254 299.29 80.3254ZM320.598 82.4092C318.842 82.4092 317.312 81.9703 316.008 81.0925C314.713 80.2146 313.707 79.0129 312.991 77.4873C312.275 75.9618 311.917 74.2231 311.917 72.2714C311.917 70.3027 312.279 68.5513 313.004 67.0172C313.737 65.4831 314.751 64.2814 316.046 63.4121C317.342 62.5342 318.846 62.0953 320.559 62.0953C321.872 62.0953 323.061 62.351 324.126 62.8623C325.191 63.3652 326.069 64.0768 326.759 64.9973C327.458 65.9092 327.897 66.9746 328.076 68.1933H325.775C325.536 67.0853 324.961 66.1393 324.049 65.3552C323.146 64.5626 321.995 64.1663 320.598 64.1663C319.345 64.1663 318.237 64.5072 317.274 65.189C316.311 65.8623 315.556 66.8041 315.011 68.0143C314.474 69.216 314.205 70.6095 314.205 72.1947C314.205 73.7885 314.47 75.199 314.998 76.4263C315.526 77.645 316.268 78.5996 317.223 79.2899C318.186 79.9802 319.311 80.3254 320.598 80.3254C321.467 80.3254 322.259 80.1635 322.975 79.8396C323.7 79.5072 324.305 79.0385 324.791 78.4334C325.285 77.8282 325.617 77.1081 325.788 76.2728H328.089C327.919 77.4575 327.497 78.5143 326.823 79.4433C326.159 80.3638 325.294 81.0882 324.228 81.6166C323.171 82.145 321.961 82.4092 320.598 82.4092ZM338.45 82.4476C337.266 82.4476 336.183 82.2175 335.203 81.7572C334.223 81.2885 333.443 80.6152 332.864 79.7373C332.284 78.851 331.995 77.7771 331.995 76.5157C331.995 75.5442 332.178 74.726 332.544 74.0612C332.911 73.3964 333.431 72.851 334.104 72.4248C334.777 71.9987 335.574 71.6621 336.495 71.4149C337.415 71.1677 338.429 70.976 339.537 70.8396C340.637 70.7032 341.566 70.5839 342.324 70.4817C343.091 70.3794 343.675 70.2175 344.075 69.9959C344.476 69.7743 344.676 69.4163 344.676 68.922V68.4618C344.676 67.1237 344.276 66.0711 343.475 65.3041C342.682 64.5285 341.54 64.1407 340.049 64.1407C338.634 64.1407 337.479 64.4518 336.584 65.074C335.698 65.6961 335.075 66.4291 334.718 67.2728L332.557 66.493C333 65.4192 333.614 64.5626 334.398 63.9234C335.182 63.2757 336.06 62.8112 337.031 62.53C338.003 62.2402 338.987 62.0953 339.985 62.0953C340.735 62.0953 341.514 62.1933 342.324 62.3893C343.142 62.5853 343.901 62.9263 344.6 63.4121C345.299 63.8893 345.865 64.5584 346.3 65.4192C346.735 66.2714 346.952 67.3538 346.952 68.6663V82.0001H344.676V78.8936H344.536C344.263 79.4731 343.858 80.0356 343.321 80.5811C342.784 81.1265 342.111 81.574 341.301 81.9234C340.492 82.2728 339.541 82.4476 338.45 82.4476ZM338.757 80.3638C339.968 80.3638 341.016 80.0953 341.902 79.5584C342.789 79.0214 343.47 78.3098 343.948 77.4234C344.433 76.5285 344.676 75.5442 344.676 74.4703V71.6322C344.506 71.7942 344.22 71.939 343.82 72.0669C343.428 72.1947 342.972 72.3098 342.452 72.4121C341.941 72.5058 341.429 72.5868 340.918 72.655C340.406 72.7231 339.946 72.7828 339.537 72.8339C338.429 72.9703 337.483 73.1834 336.699 73.4731C335.915 73.7629 335.314 74.1635 334.897 74.6748C334.479 75.1777 334.27 75.8254 334.27 76.618C334.27 77.8112 334.696 78.7359 335.549 79.3922C336.401 80.0399 337.47 80.3638 338.757 80.3638ZM360.676 82.4092C358.92 82.4092 357.39 81.9703 356.086 81.0925C354.791 80.2146 353.785 79.0129 353.069 77.4873C352.353 75.9618 351.995 74.2231 351.995 72.2714C351.995 70.3027 352.357 68.5513 353.082 67.0172C353.815 65.4831 354.829 64.2814 356.124 63.4121C357.42 62.5342 358.924 62.0953 360.637 62.0953C361.95 62.0953 363.139 62.351 364.204 62.8623C365.269 63.3652 366.147 64.0768 366.838 64.9973C367.536 65.9092 367.975 66.9746 368.154 68.1933H365.853C365.615 67.0853 365.039 66.1393 364.127 65.3552C363.224 64.5626 362.073 64.1663 360.676 64.1663C359.423 64.1663 358.315 64.5072 357.352 65.189C356.389 65.8623 355.634 66.8041 355.089 68.0143C354.552 69.216 354.284 70.6095 354.284 72.1947C354.284 73.7885 354.548 75.199 355.076 76.4263C355.605 77.645 356.346 78.5996 357.301 79.2899C358.264 79.9802 359.389 80.3254 360.676 80.3254C361.545 80.3254 362.338 80.1635 363.053 79.8396C363.778 79.5072 364.383 79.0385 364.869 78.4334C365.363 77.8282 365.696 77.1081 365.866 76.2728H368.167C367.997 77.4575 367.575 78.5143 366.901 79.4433C366.237 80.3638 365.372 81.0882 364.306 81.6166C363.249 82.145 362.039 82.4092 360.676 82.4092ZM373.07 82.0001V62.3638H375.358V82.0001H373.07ZM374.233 58.9888C373.764 58.9888 373.364 58.8311 373.031 58.5157C372.699 58.1919 372.533 57.8041 372.533 57.3524C372.533 56.9007 372.699 56.5172 373.031 56.2018C373.364 55.878 373.764 55.716 374.233 55.716C374.702 55.716 375.102 55.878 375.435 56.2018C375.767 56.5172 375.933 56.9007 375.933 57.3524C375.933 57.8041 375.767 58.1919 375.435 58.5157C375.102 58.8311 374.702 58.9888 374.233 58.9888ZM386.861 82.4476C385.676 82.4476 384.594 82.2175 383.613 81.7572C382.633 81.2885 381.854 80.6152 381.274 79.7373C380.694 78.851 380.405 77.7771 380.405 76.5157C380.405 75.5442 380.588 74.726 380.954 74.0612C381.321 73.3964 381.841 72.851 382.514 72.4248C383.187 71.9987 383.984 71.6621 384.905 71.4149C385.825 71.1677 386.839 70.976 387.947 70.8396C389.047 70.7032 389.976 70.5839 390.734 70.4817C391.501 70.3794 392.085 70.2175 392.486 69.9959C392.886 69.7743 393.086 69.4163 393.086 68.922V68.4618C393.086 67.1237 392.686 66.0711 391.885 65.3041C391.092 64.5285 389.95 64.1407 388.459 64.1407C387.044 64.1407 385.889 64.4518 384.994 65.074C384.108 65.6961 383.486 66.4291 383.128 67.2728L380.967 66.493C381.41 65.4192 382.024 64.5626 382.808 63.9234C383.592 63.2757 384.47 62.8112 385.442 62.53C386.413 62.2402 387.398 62.0953 388.395 62.0953C389.145 62.0953 389.925 62.1933 390.734 62.3893C391.552 62.5853 392.311 62.9263 393.01 63.4121C393.709 63.8893 394.275 64.5584 394.71 65.4192C395.145 66.2714 395.362 67.3538 395.362 68.6663V82.0001H393.086V78.8936H392.946C392.673 79.4731 392.268 80.0356 391.731 80.5811C391.194 81.1265 390.521 81.574 389.711 81.9234C388.902 82.2728 387.952 82.4476 386.861 82.4476ZM387.167 80.3638C388.378 80.3638 389.426 80.0953 390.312 79.5584C391.199 79.0214 391.881 78.3098 392.358 77.4234C392.844 76.5285 393.086 75.5442 393.086 74.4703V71.6322C392.916 71.7942 392.631 71.939 392.23 72.0669C391.838 72.1947 391.382 72.3098 390.862 72.4121C390.351 72.5058 389.839 72.5868 389.328 72.655C388.817 72.7231 388.356 72.7828 387.947 72.8339C386.839 72.9703 385.893 73.1834 385.109 73.4731C384.325 73.7629 383.724 74.1635 383.307 74.6748C382.889 75.1777 382.68 75.8254 382.68 76.618C382.68 77.8112 383.106 78.7359 383.959 79.3922C384.811 80.0399 385.881 80.3638 387.167 80.3638Z" fill="#5E5E5E"/>
<path d="M251.393 184.92C247.724 184.92 244.225 184.451 240.897 183.512C237.654 182.573 234.668 181.165 231.937 179.288C231.425 178.861 230.956 178.435 230.529 178.008C230.102 177.496 229.761 176.941 229.505 176.344C228.822 174.211 228.353 171.608 228.097 168.536C227.841 165.379 227.756 162.349 227.841 159.448C227.841 158.851 228.054 158.424 228.481 158.168C228.993 157.912 229.59 157.784 230.273 157.784C230.956 157.784 231.468 157.912 231.809 158.168C232.236 158.339 232.534 158.723 232.705 159.32C234.582 165.72 237.313 170.712 240.897 174.296C244.481 177.88 248.534 179.672 253.057 179.672C255.873 179.672 258.262 179.032 260.225 177.752C262.188 176.472 263.681 174.808 264.705 172.76C265.729 170.712 266.241 168.493 266.241 166.104C266.241 163.117 265.686 160.643 264.577 158.68C263.553 156.717 261.974 154.968 259.841 153.432C257.708 151.811 255.02 150.104 251.777 148.312C248.278 146.264 244.865 144.131 241.537 141.912C238.209 139.608 235.478 136.92 233.345 133.848C231.212 130.691 230.145 126.808 230.145 122.2C230.145 117.421 231.34 113.24 233.729 109.656C236.204 105.987 239.617 103.128 243.969 101.08C248.321 99.0321 253.356 98.0081 259.073 98.0081C262.23 98.0081 265.174 98.3495 267.905 99.0321C270.636 99.7148 272.812 100.397 274.433 101.08C275.372 101.421 276.054 101.848 276.481 102.36C276.993 102.872 277.377 103.683 277.633 104.792C278.145 106.584 278.572 108.717 278.913 111.192C279.34 113.667 279.553 116.269 279.553 119C279.553 120.024 278.785 120.536 277.249 120.536C276.566 120.536 275.884 120.365 275.201 120.024C274.518 119.683 274.092 119.213 273.921 118.616C272.385 113.667 270.252 109.912 267.521 107.352C264.876 104.792 261.59 103.512 257.665 103.512C255.02 103.512 252.758 103.981 250.881 104.92C249.004 105.773 247.51 107.139 246.401 109.016C245.292 110.808 244.737 113.155 244.737 116.056C244.737 118.275 245.462 120.323 246.913 122.2C248.449 124.077 250.54 125.912 253.185 127.704C255.916 129.496 258.945 131.459 262.273 133.592C266.369 135.981 269.782 138.413 272.513 140.888C275.329 143.277 277.462 145.965 278.913 148.952C280.364 151.853 281.089 155.309 281.089 159.32C281.089 164.952 279.852 169.688 277.377 173.528C274.902 177.283 271.446 180.141 267.009 182.104C262.572 183.981 257.366 184.92 251.393 184.92ZM291.121 183.384C290.438 183.384 289.884 183.256 289.457 183C289.03 182.659 288.817 182.232 288.817 181.72C288.817 181.037 289.073 180.525 289.585 180.184C290.097 179.843 290.694 179.587 291.377 179.416C293.425 178.904 294.876 178.349 295.729 177.752C296.668 177.155 297.137 176.131 297.137 174.68V146.904C297.137 144.173 296.71 142.125 295.857 140.76C295.004 139.395 293.553 138.541 291.505 138.2C291.078 138.115 290.737 137.901 290.481 137.56C290.225 137.133 290.097 136.664 290.097 136.152C290.097 134.957 290.566 134.317 291.505 134.232C295.601 133.379 299.142 132.227 302.129 130.776C305.201 129.24 307.548 128.045 309.169 127.192C310.364 126.595 311.132 126.296 311.473 126.296C312.412 126.296 312.881 126.723 312.881 127.576C312.796 128.771 312.625 130.435 312.369 132.568C312.113 134.616 311.857 136.835 311.601 139.224C311.43 141.528 311.345 143.704 311.345 145.752V174.552C311.345 175.832 311.814 176.813 312.753 177.496C313.692 178.179 315.185 178.819 317.233 179.416C317.916 179.672 318.513 179.971 319.025 180.312C319.537 180.568 319.793 181.037 319.793 181.72C319.793 182.744 319.068 183.256 317.617 183.256C315.996 183.256 314.417 183.213 312.881 183.128C311.43 183.043 309.98 182.957 308.529 182.872C307.164 182.787 305.713 182.744 304.177 182.744C302.726 182.744 301.318 182.787 299.953 182.872C298.588 182.957 297.18 183.043 295.729 183.128C294.364 183.299 292.828 183.384 291.121 183.384ZM303.921 118.872C301.446 118.872 299.356 118.019 297.649 116.312C295.942 114.605 295.089 112.557 295.089 110.168C295.089 107.523 295.942 105.347 297.649 103.64C299.356 101.933 301.446 101.08 303.921 101.08C306.481 101.08 308.614 101.933 310.321 103.64C312.028 105.347 312.881 107.523 312.881 110.168C312.881 112.557 312.028 114.605 310.321 116.312C308.614 118.019 306.481 118.872 303.921 118.872ZM326.487 183.384C325.804 183.384 325.207 183.256 324.695 183C324.183 182.744 323.927 182.36 323.927 181.848C323.927 181.165 324.183 180.653 324.695 180.312C325.292 179.971 326.018 179.629 326.871 179.288C328.151 178.861 329.303 178.392 330.327 177.88C331.436 177.368 331.991 176.216 331.991 174.424V111.96C331.991 109.571 331.607 107.565 330.839 105.944C330.156 104.237 328.748 103.171 326.615 102.744C325.762 102.573 325.335 101.933 325.335 100.824C325.335 99.8001 325.719 99.2028 326.487 99.0321C328.62 98.6055 330.796 98.0081 333.015 97.2401C335.319 96.4721 337.452 95.7041 339.415 94.9361C341.463 94.1681 343.17 93.5708 344.535 93.1441C345.132 92.8881 345.559 92.7601 345.815 92.7601C346.242 92.7601 346.54 92.9308 346.711 93.2721C346.882 93.5281 346.967 93.7841 346.967 94.0401C346.967 94.7228 346.839 96.0455 346.583 98.0081C346.327 99.8855 346.199 102.445 346.199 105.688V174.296C346.199 176.088 346.711 177.24 347.735 177.752C348.759 178.264 349.911 178.733 351.191 179.16C352.044 179.501 352.727 179.843 353.239 180.184C353.836 180.525 354.135 181.037 354.135 181.72C354.135 182.232 353.879 182.616 353.367 182.872C352.855 183.128 352.258 183.256 351.575 183.256C349.954 183.256 348.46 183.171 347.095 183C345.73 182.915 344.364 182.872 342.999 182.872C341.719 182.787 340.311 182.744 338.775 182.744C337.324 182.744 335.959 182.787 334.679 182.872C333.484 182.957 332.247 183.043 330.967 183.128C329.687 183.299 328.194 183.384 326.487 183.384ZM384.572 185.688C384.06 185.688 383.505 185.091 382.908 183.896C382.396 182.701 381.927 181.507 381.5 180.312C380.817 178.861 380.135 177.24 379.452 175.448C378.769 173.571 378.087 171.864 377.404 170.328C375.356 165.293 373.223 160.344 371.004 155.48C368.785 150.616 366.567 145.624 364.348 140.504C363.58 138.797 362.641 137.304 361.532 136.024C360.508 134.659 359.271 133.763 357.82 133.336C357.052 132.995 356.455 132.696 356.028 132.44C355.687 132.099 355.516 131.544 355.516 130.776C355.516 130.179 355.857 129.837 356.54 129.752C357.308 129.581 357.948 129.496 358.46 129.496C360.337 129.496 361.788 129.539 362.812 129.624C363.921 129.709 364.945 129.837 365.884 130.008C366.908 130.093 368.273 130.136 369.98 130.136C371.687 130.136 373.137 130.093 374.332 130.008C375.527 129.837 376.764 129.709 378.044 129.624C379.324 129.539 380.903 129.496 382.78 129.496C383.292 129.496 383.889 129.581 384.572 129.752C385.255 129.923 385.596 130.349 385.596 131.032C385.596 131.715 385.297 132.227 384.7 132.568C384.103 132.824 383.463 133.08 382.78 133.336C381.841 133.677 381.116 134.317 380.604 135.256C380.177 136.195 379.964 137.347 379.964 138.712C379.964 139.395 379.964 140.077 379.964 140.76C380.049 141.357 380.22 141.997 380.476 142.68L389.436 165.592C389.521 165.677 389.564 165.72 389.564 165.72C389.649 165.72 389.735 165.677 389.82 165.592L398.14 143.832C398.481 143.064 398.695 142.296 398.78 141.528C398.951 140.76 399.036 140.035 399.036 139.352C399.036 137.816 398.737 136.579 398.14 135.64C397.543 134.616 396.561 133.891 395.196 133.464C394.343 133.123 393.617 132.824 393.02 132.568C392.508 132.227 392.252 131.715 392.252 131.032C392.252 130.435 392.593 130.051 393.276 129.88C393.959 129.624 394.599 129.496 395.196 129.496C396.988 129.581 398.524 129.709 399.804 129.88C401.084 129.965 402.535 130.008 404.156 130.008C405.692 130.008 406.972 129.965 407.996 129.88C409.105 129.709 410.599 129.581 412.476 129.496C413.159 129.496 413.799 129.581 414.396 129.752C415.079 129.923 415.42 130.307 415.42 130.904C415.42 132.013 414.567 132.867 412.86 133.464C411.409 133.976 409.959 134.957 408.508 136.408C407.143 137.859 406.033 139.608 405.18 141.656L395.196 166.36C395.025 166.957 394.727 167.768 394.3 168.792C393.873 169.731 393.404 170.755 392.892 171.864C392.465 172.973 392.039 173.997 391.612 174.936C391.271 175.789 391.015 176.429 390.844 176.856C390.673 177.283 390.332 178.093 389.82 179.288C389.308 180.397 388.753 181.592 388.156 182.872C387.644 184.067 387.175 185.005 386.748 185.688H384.572ZM419.871 183.384C419.188 183.384 418.634 183.256 418.207 183C417.78 182.659 417.567 182.232 417.567 181.72C417.567 181.037 417.823 180.525 418.335 180.184C418.847 179.843 419.444 179.587 420.127 179.416C422.175 178.904 423.626 178.349 424.479 177.752C425.418 177.155 425.887 176.131 425.887 174.68V146.904C425.887 144.173 425.46 142.125 424.607 140.76C423.754 139.395 422.303 138.541 420.255 138.2C419.828 138.115 419.487 137.901 419.231 137.56C418.975 137.133 418.847 136.664 418.847 136.152C418.847 134.957 419.316 134.317 420.255 134.232C424.351 133.379 427.892 132.227 430.879 130.776C433.951 129.24 436.298 128.045 437.919 127.192C439.114 126.595 439.882 126.296 440.223 126.296C441.162 126.296 441.631 126.723 441.631 127.576C441.546 128.771 441.375 130.435 441.119 132.568C440.863 134.616 440.607 136.835 440.351 139.224C440.18 141.528 440.095 143.704 440.095 145.752V174.552C440.095 175.832 440.564 176.813 441.503 177.496C442.442 178.179 443.935 178.819 445.983 179.416C446.666 179.672 447.263 179.971 447.775 180.312C448.287 180.568 448.543 181.037 448.543 181.72C448.543 182.744 447.818 183.256 446.367 183.256C444.746 183.256 443.167 183.213 441.631 183.128C440.18 183.043 438.73 182.957 437.279 182.872C435.914 182.787 434.463 182.744 432.927 182.744C431.476 182.744 430.068 182.787 428.703 182.872C427.338 182.957 425.93 183.043 424.479 183.128C423.114 183.299 421.578 183.384 419.871 183.384ZM432.671 118.872C430.196 118.872 428.106 118.019 426.399 116.312C424.692 114.605 423.839 112.557 423.839 110.168C423.839 107.523 424.692 105.347 426.399 103.64C428.106 101.933 430.196 101.08 432.671 101.08C435.231 101.08 437.364 101.933 439.071 103.64C440.778 105.347 441.631 107.523 441.631 110.168C441.631 112.557 440.778 114.605 439.071 116.312C437.364 118.019 435.231 118.872 432.671 118.872ZM480.709 184.792C475.674 184.792 471.152 183.683 467.141 181.464C463.13 179.16 459.93 176.003 457.541 171.992C455.152 167.981 453.957 163.459 453.957 158.424C453.957 154.499 454.725 150.744 456.261 147.16C457.797 143.576 459.888 140.376 462.533 137.56C465.178 134.744 468.293 132.525 471.877 130.904C475.461 129.197 479.301 128.344 483.397 128.344C488.602 128.344 493.253 129.581 497.349 132.056C501.53 134.445 504.858 137.645 507.333 141.656C509.808 145.667 511.045 150.061 511.045 154.84C511.045 160.131 509.893 165.08 507.589 169.688C505.37 174.211 502 177.88 497.477 180.696C493.04 183.427 487.45 184.792 480.709 184.792ZM483.269 179.8C485.402 179.8 487.28 179.373 488.901 178.52C490.608 177.667 491.973 176.344 492.997 174.552C494.021 172.76 494.704 170.413 495.045 167.512C495.472 164.525 495.685 161.325 495.685 157.912C495.685 153.389 495.088 149.293 493.893 145.624C492.698 141.955 491.034 139.011 488.901 136.792C486.768 134.573 484.25 133.464 481.349 133.464C479.728 133.464 478.234 133.763 476.869 134.36C475.589 134.872 474.394 135.768 473.285 137.048C471.749 138.84 470.682 141.315 470.085 144.472C469.573 147.544 469.317 151.128 469.317 155.224C469.317 159.32 469.914 163.245 471.109 167C472.389 170.755 474.053 173.827 476.101 176.216C478.234 178.605 480.624 179.8 483.269 179.8ZM570.643 184.92C566.974 184.92 563.475 184.451 560.147 183.512C556.904 182.573 553.918 181.165 551.187 179.288C550.675 178.861 550.206 178.435 549.779 178.008C549.352 177.496 549.011 176.941 548.755 176.344C548.072 174.211 547.603 171.608 547.347 168.536C547.091 165.379 547.006 162.349 547.091 159.448C547.091 158.851 547.304 158.424 547.731 158.168C548.243 157.912 548.84 157.784 549.523 157.784C550.206 157.784 550.718 157.912 551.059 158.168C551.486 158.339 551.784 158.723 551.955 159.32C553.832 165.72 556.563 170.712 560.147 174.296C563.731 177.88 567.784 179.672 572.307 179.672C575.123 179.672 577.512 179.032 579.475 177.752C581.438 176.472 582.931 174.808 583.955 172.76C584.979 170.712 585.491 168.493 585.491 166.104C585.491 163.117 584.936 160.643 583.827 158.68C582.803 156.717 581.224 154.968 579.091 153.432C576.958 151.811 574.27 150.104 571.027 148.312C567.528 146.264 564.115 144.131 560.787 141.912C557.459 139.608 554.728 136.92 552.595 133.848C550.462 130.691 549.395 126.808 549.395 122.2C549.395 117.421 550.59 113.24 552.979 109.656C555.454 105.987 558.867 103.128 563.219 101.08C567.571 99.0321 572.606 98.0081 578.323 98.0081C581.48 98.0081 584.424 98.3495 587.155 99.0321C589.886 99.7148 592.062 100.397 593.683 101.08C594.622 101.421 595.304 101.848 595.731 102.36C596.243 102.872 596.627 103.683 596.883 104.792C597.395 106.584 597.822 108.717 598.163 111.192C598.59 113.667 598.803 116.269 598.803 119C598.803 120.024 598.035 120.536 596.499 120.536C595.816 120.536 595.134 120.365 594.451 120.024C593.768 119.683 593.342 119.213 593.171 118.616C591.635 113.667 589.502 109.912 586.771 107.352C584.126 104.792 580.84 103.512 576.915 103.512C574.27 103.512 572.008 103.981 570.131 104.92C568.254 105.773 566.76 107.139 565.651 109.016C564.542 110.808 563.987 113.155 563.987 116.056C563.987 118.275 564.712 120.323 566.163 122.2C567.699 124.077 569.79 125.912 572.435 127.704C575.166 129.496 578.195 131.459 581.523 133.592C585.619 135.981 589.032 138.413 591.763 140.888C594.579 143.277 596.712 145.965 598.163 148.952C599.614 151.853 600.339 155.309 600.339 159.32C600.339 164.952 599.102 169.688 596.627 173.528C594.152 177.283 590.696 180.141 586.259 182.104C581.822 183.981 576.616 184.92 570.643 184.92ZM636.459 184.792C631.424 184.792 626.902 183.683 622.891 181.464C618.88 179.16 615.68 176.003 613.291 171.992C610.902 167.981 609.707 163.459 609.707 158.424C609.707 154.499 610.475 150.744 612.011 147.16C613.547 143.576 615.638 140.376 618.283 137.56C620.928 134.744 624.043 132.525 627.627 130.904C631.211 129.197 635.051 128.344 639.147 128.344C644.352 128.344 649.003 129.581 653.099 132.056C657.28 134.445 660.608 137.645 663.083 141.656C665.558 145.667 666.795 150.061 666.795 154.84C666.795 160.131 665.643 165.08 663.339 169.688C661.12 174.211 657.75 177.88 653.227 180.696C648.79 183.427 643.2 184.792 636.459 184.792ZM639.019 179.8C641.152 179.8 643.03 179.373 644.651 178.52C646.358 177.667 647.723 176.344 648.747 174.552C649.771 172.76 650.454 170.413 650.795 167.512C651.222 164.525 651.435 161.325 651.435 157.912C651.435 153.389 650.838 149.293 649.643 145.624C648.448 141.955 646.784 139.011 644.651 136.792C642.518 134.573 640 133.464 637.099 133.464C635.478 133.464 633.984 133.763 632.619 134.36C631.339 134.872 630.144 135.768 629.035 137.048C627.499 138.84 626.432 141.315 625.835 144.472C625.323 147.544 625.067 151.128 625.067 155.224C625.067 159.32 625.664 163.245 626.859 167C628.139 170.755 629.803 173.827 631.851 176.216C633.984 178.605 636.374 179.8 639.019 179.8ZM715.435 185.56C714.752 185.56 714.411 185.176 714.411 184.408C714.411 183.469 714.496 182.147 714.667 180.44C714.923 178.733 715.051 177.368 715.051 176.344C715.051 176.088 715.008 175.875 714.923 175.704C714.923 175.448 714.923 175.277 714.923 175.192C712.278 178.093 709.163 180.44 705.579 182.232C702.08 184.024 698.368 184.92 694.443 184.92C691.712 184.92 689.238 184.195 687.019 182.744C684.886 181.293 683.179 179.288 681.899 176.728C680.704 174.168 680.107 171.181 680.107 167.768V143.192C680.107 141.229 679.723 139.693 678.955 138.584C678.187 137.389 676.822 136.493 674.859 135.896C674.347 135.811 673.878 135.597 673.451 135.256C673.11 134.915 672.939 134.403 672.939 133.72C672.939 133.037 673.11 132.525 673.451 132.184C673.878 131.843 674.347 131.629 674.859 131.544C678.272 131.373 681.216 131.075 683.691 130.648C686.166 130.136 688.811 129.539 691.627 128.856C691.968 128.685 692.31 128.557 692.651 128.472C692.992 128.387 693.334 128.344 693.675 128.344C694.784 128.344 695.296 128.941 695.211 130.136C694.955 132.099 694.742 133.763 694.571 135.128C694.4 136.408 694.315 138.029 694.315 139.992V164.696C694.315 166.744 694.699 168.579 695.467 170.2C696.235 171.821 697.302 173.101 698.667 174.04C700.032 174.979 701.526 175.491 703.147 175.576C704.768 175.576 706.262 175.405 707.627 175.064C709.078 174.723 710.486 173.955 711.851 172.76C712.534 172.248 713.302 171.309 714.155 169.944C715.008 168.493 715.435 166.616 715.435 164.312V142.808C715.435 141.187 715.051 139.907 714.283 138.968C713.6 137.944 712.662 137.176 711.467 136.664C710.358 136.152 709.206 135.896 708.011 135.896C707.072 135.811 706.347 135.597 705.835 135.256C705.323 134.915 705.067 134.232 705.067 133.208C705.067 132.355 705.366 131.757 705.963 131.416C706.56 131.075 707.243 130.904 708.011 130.904C711.766 130.648 714.795 130.435 717.099 130.264C719.403 130.093 721.323 129.88 722.859 129.624C724.48 129.368 726.059 129.027 727.595 128.6C727.851 128.515 728.107 128.472 728.363 128.472C728.704 128.387 728.96 128.344 729.131 128.344C730.326 128.344 730.923 128.813 730.923 129.752C730.923 130.008 730.88 130.307 730.795 130.648C730.795 130.904 730.71 131.203 730.539 131.544C730.454 131.8 730.326 132.525 730.155 133.72C730.07 134.915 729.942 136.152 729.771 137.432C729.686 138.712 729.643 139.693 729.643 140.376V170.072C729.643 172.12 729.856 173.528 730.283 174.296C730.795 175.064 731.35 175.448 731.947 175.448C732.459 175.448 733.184 175.448 734.123 175.448C735.147 175.363 735.872 175.32 736.299 175.32C736.982 175.32 737.536 175.491 737.963 175.832C738.39 176.173 738.603 176.728 738.603 177.496C738.603 178.264 738.432 178.861 738.091 179.288C737.835 179.629 737.323 179.843 736.555 179.928C732.715 180.269 729.302 180.952 726.315 181.976C723.328 182.915 720.726 183.853 718.507 184.792C717.995 184.963 717.44 185.133 716.843 185.304C716.331 185.475 715.862 185.56 715.435 185.56ZM745.127 183.64C744.786 183.64 744.274 183.299 743.591 182.616C742.908 181.848 742.567 181.165 742.567 180.568C742.567 180.141 742.866 179.459 743.463 178.52C744.146 177.496 744.871 176.429 745.639 175.32C746.492 174.125 747.175 173.144 747.687 172.376C749.735 169.133 751.655 166.232 753.447 163.672C755.239 161.027 756.946 158.424 758.567 155.864C760.274 153.219 762.066 150.403 763.943 147.416C765.82 144.429 767.996 140.931 770.471 136.92C770.642 136.664 770.727 136.365 770.727 136.024C770.727 135.683 770.215 135.512 769.191 135.512L760.231 135.384C759.036 135.299 757.97 135.512 757.031 136.024C756.178 136.451 755.367 137.005 754.599 137.688C754.172 138.115 753.618 138.797 752.935 139.736C752.252 140.675 751.527 141.699 750.759 142.808C749.991 143.832 749.308 144.813 748.711 145.752C748.114 146.605 747.644 147.245 747.303 147.672C746.791 148.269 746.023 148.397 744.999 148.056C743.975 147.715 743.548 147.16 743.719 146.392C743.975 145.539 744.316 144.173 744.743 142.296C745.17 140.419 745.554 138.413 745.895 136.28C746.322 134.147 746.535 132.355 746.535 130.904C746.535 130.136 746.834 129.453 747.431 128.856C748.028 128.259 748.583 127.96 749.095 127.96C749.778 127.96 750.546 128.387 751.399 129.24C751.826 129.581 752.594 129.795 753.703 129.88C754.898 129.965 756.092 130.008 757.287 130.008C758.311 130.008 759.292 130.008 760.231 130.008C761.17 129.923 761.938 129.88 762.535 129.88C766.716 129.88 771.026 129.837 775.463 129.752C779.9 129.667 784.21 129.581 788.391 129.496C788.903 129.496 789.33 129.752 789.671 130.264C790.012 130.691 790.226 131.203 790.311 131.8C790.482 132.397 790.439 132.867 790.183 133.208C789.244 134.403 788.391 135.512 787.623 136.536C786.855 137.56 786.002 138.755 785.063 140.12L762.535 175.448C762.194 176.045 762.108 176.515 762.279 176.856C762.535 177.197 763.132 177.368 764.071 177.368H774.439C775.548 177.368 776.615 177.155 777.639 176.728C778.663 176.301 779.687 175.533 780.711 174.424C781.906 173.144 782.972 171.779 783.911 170.328C784.935 168.792 786.172 166.829 787.623 164.44C788.22 163.501 789.031 163.16 790.055 163.416C791.079 163.672 791.591 164.227 791.591 165.08C791.591 165.592 791.42 166.531 791.079 167.896C790.823 169.176 790.482 170.669 790.055 172.376C789.628 174.083 789.159 175.789 788.647 177.496C788.22 179.117 787.836 180.525 787.495 181.72C787.154 183 786.386 183.64 785.191 183.64C783.143 183.64 779.644 183.512 774.695 183.256C769.746 183 763.559 182.872 756.135 182.872C754.172 182.872 752.124 183 749.991 183.256C747.943 183.512 746.322 183.64 745.127 183.64ZM809.126 184.792C807.078 184.792 805.115 184.237 803.238 183.128C801.446 182.019 799.995 180.568 798.886 178.776C797.777 176.984 797.222 175.149 797.222 173.272C797.222 170.371 798.075 168.024 799.782 166.232C801.489 164.355 804.049 162.691 807.462 161.24L819.366 156.12C821.073 155.437 822.097 154.797 822.438 154.2C822.865 153.603 823.078 152.493 823.078 150.872L823.334 143.32C823.419 140.931 822.907 139.011 821.798 137.56C820.774 136.109 819.195 135.384 817.062 135.384C815.953 135.384 814.801 135.597 813.606 136.024C812.411 136.451 811.473 137.005 810.79 137.688C810.449 138.029 810.193 138.499 810.022 139.096C809.937 139.608 809.894 140.12 809.894 140.632C809.894 141.059 809.894 141.613 809.894 142.296C809.979 142.893 810.022 143.448 810.022 143.96C810.022 144.472 809.382 145.112 808.102 145.88C806.822 146.648 805.371 147.331 803.75 147.928C802.129 148.525 800.763 148.824 799.654 148.824C799.057 148.824 798.587 148.611 798.246 148.184C797.905 147.757 797.734 147.245 797.734 146.648C797.734 145.283 798.161 143.917 799.014 142.552C799.953 141.101 801.403 139.565 803.366 137.944C805.499 136.152 807.846 134.573 810.406 133.208C812.966 131.757 815.441 130.605 817.83 129.752C820.305 128.899 822.438 128.472 824.23 128.472C828.326 128.472 831.611 129.837 834.086 132.568C836.561 135.213 837.755 138.712 837.67 143.064L837.03 170.456C836.945 172.333 837.286 173.912 838.054 175.192C838.907 176.472 839.931 177.112 841.126 177.112C842.918 177.112 844.369 176.6 845.478 175.576C845.819 175.235 846.118 175.064 846.374 175.064C846.801 175.064 847.142 175.235 847.398 175.576C847.739 175.832 847.91 176.173 847.91 176.6C847.91 177.539 847.227 178.691 845.862 180.056C844.326 181.592 842.662 182.744 840.87 183.512C839.163 184.365 837.457 184.792 835.75 184.792C831.227 184.792 827.558 182.445 824.742 177.752H824.358C821.542 180.227 818.939 182.019 816.55 183.128C814.246 184.237 811.771 184.792 809.126 184.792ZM816.166 177.112C817.361 177.112 818.385 176.941 819.238 176.6C820.091 176.173 820.817 175.619 821.414 174.936C821.755 174.509 822.011 173.997 822.182 173.4C822.438 172.803 822.609 171.949 822.694 170.84L822.95 162.648C823.035 161.795 822.95 161.24 822.694 160.984C822.438 160.643 822.139 160.472 821.798 160.472C821.627 160.472 821.371 160.515 821.03 160.6C820.689 160.6 820.305 160.728 819.878 160.984C816.721 162.264 814.459 163.629 813.094 165.08C811.729 166.531 811.046 168.408 811.046 170.712C811.046 173.016 811.601 174.68 812.71 175.704C813.819 176.643 814.971 177.112 816.166 177.112Z" fill="#374282"/>
</svg>
