<svg width="851" height="216" viewBox="0 0 851 216" fill="none" xmlns="http://www.w3.org/2000/svg">
<path d="M75.8773 11.5359C117.872 -17.8163 155.181 17.8954 157.183 19.6482C157.875 20.2545 162.558 16.7512 162.983 16.4333C167.584 12.9914 170.81 21.3693 169.818 22.2058C167.45 24.2021 149.572 39.276 139.463 46.1941C137.555 47.4998 135.564 37.2059 124.932 25.0476C95.5716 -8.5268 53.745 25.8979 81.2425 50.1472C85.8541 54.214 91.3783 59.0853 152.964 77.6521C154.508 78.1175 155.532 75.1367 173.933 52.2771C179.069 45.8957 179.728 42.1973 183.909 44.7751C190.098 48.5915 184.99 49.8788 180.529 55.6921C163.184 78.2941 162.941 78.0876 161.436 80.0535C159.319 82.8184 210.492 93.9865 198.047 136.43C189.686 164.946 151.759 194.09 146.674 197.997C130.73 210.248 129.982 212.01 126.687 209.299C123.545 206.713 101.72 188.756 83.0648 183.166C80.2589 182.325 80.1819 183.657 57.0296 212.926C54.5251 216.092 52.894 215.385 44.9027 216.001C44.6045 214.023 66.9574 187.542 71.6029 181.409C73.2211 179.269 57.3351 178.451 48.4105 180.303C22.0484 185.774 7.59908 204.839 2.35971 210.97C-0.169293 213.93 0.142021 208.577 0.0784607 207.38C-0.449225 197.439 1.64329 197.832 8.33041 190.511C44.9843 150.385 85.504 161.712 87.7591 160.754C89.3981 160.055 111.423 131.597 113.421 129.015C118.864 121.983 25.2604 129.691 45.8451 36.3816C46.491 33.4548 53.3782 33.9482 53.3236 36.9109C52.591 76.2644 61.5598 83.4332 95.4593 96.6609C98.1047 97.6931 112.835 103.441 129.187 107.659C130.046 107.881 130.524 108.003 136.755 99.533C139.332 96.0298 92.2841 90.5023 74.7308 73.2839C44.0406 43.1789 70.823 15.7001 75.8773 11.5359ZM144.743 101.811C144.411 102.114 137.852 109.616 138.49 110.453C139.128 111.286 183.929 122.639 169.412 150.349C168.351 152.375 166.523 155.865 150.291 171.575C148.757 173.06 142.735 167.32 144.762 166.086C174.822 147.785 148.163 138.562 123.934 130.794C121.78 130.103 121.8 131.222 98.1595 160.792C97.834 161.199 97.3592 161.867 97.2914 161.963C95.9473 163.854 98.1113 162.876 100.138 163.995C129.459 171.786 145.154 187.897 148.109 185.4C179.276 159.05 184.926 152.497 183.387 132.772C181.704 111.204 144.952 101.66 144.743 101.811Z" fill="#222222"/>
<path d="M227.517 82.0004H225.011L234.535 55.8185H237.092L246.616 82.0004H244.11L235.903 58.9251H235.724L227.517 82.0004ZM229.319 71.9649H242.308V74.1126H229.319V71.9649ZM257.7 82.4095C256.089 82.4095 254.678 81.9833 253.468 81.131C252.258 80.2788 251.312 79.0899 250.63 77.5643C249.957 76.0387 249.62 74.2617 249.62 72.2333C249.62 70.2134 249.957 68.445 250.63 66.9279C251.312 65.4024 252.262 64.2177 253.481 63.3739C254.7 62.5217 256.119 62.0955 257.738 62.0955C258.931 62.0955 259.924 62.3086 260.717 62.7347C261.509 63.1524 262.144 63.6722 262.622 64.2944C263.099 64.9166 263.47 65.5217 263.734 66.1097H263.938V55.8185H266.227V82.0004H264.002V78.3569H263.734C263.47 78.9535 263.095 79.5671 262.609 80.1978C262.123 80.82 261.48 81.3441 260.678 81.7703C259.886 82.1964 258.893 82.4095 257.7 82.4095ZM257.968 80.3257C259.238 80.3257 260.321 79.9805 261.215 79.2901C262.11 78.5913 262.792 77.6325 263.261 76.4137C263.738 75.1864 263.977 73.7802 263.977 72.195C263.977 70.6268 263.742 69.2418 263.274 68.0401C262.805 66.8299 262.123 65.8839 261.228 65.2021C260.333 64.5117 259.247 64.1666 257.968 64.1666C256.656 64.1666 255.548 64.5245 254.644 65.2404C253.749 65.9478 253.068 66.9066 252.599 68.1168C252.139 69.3271 251.909 70.6864 251.909 72.195C251.909 73.7205 252.143 75.097 252.612 76.3242C253.08 77.5515 253.762 78.5274 254.657 79.2518C255.561 79.9677 256.664 80.3257 257.968 80.3257ZM287.909 62.364L280.737 82.0004H278.308L271.136 62.364H273.603L279.433 78.9961H279.612L285.441 62.364H287.909ZM299.29 82.4095C297.594 82.4095 296.094 81.9791 294.79 81.1183C293.494 80.2575 292.48 79.0685 291.747 77.5515C291.014 76.0259 290.648 74.266 290.648 72.2717C290.648 70.2603 291.014 68.4918 291.747 66.9663C292.48 65.4322 293.494 64.239 294.79 63.3867C296.094 62.5259 297.594 62.0955 299.29 62.0955C300.986 62.0955 302.481 62.5259 303.777 63.3867C305.072 64.2475 306.086 65.4407 306.819 66.9663C307.561 68.4918 307.932 70.2603 307.932 72.2717C307.932 74.266 307.565 76.0259 306.832 77.5515C306.099 79.0685 305.081 80.2575 303.777 81.1183C302.481 81.9791 300.986 82.4095 299.29 82.4095ZM299.29 80.3257C300.653 80.3257 301.808 79.9592 302.754 79.2262C303.7 78.4933 304.416 77.5174 304.902 76.2987C305.396 75.0799 305.643 73.7376 305.643 72.2717C305.643 70.8058 305.396 69.4592 304.902 68.2319C304.416 67.0046 303.7 66.0203 302.754 65.2788C301.808 64.5373 300.653 64.1666 299.29 64.1666C297.935 64.1666 296.78 64.5373 295.825 65.2788C294.879 66.0203 294.159 67.0046 293.665 68.2319C293.179 69.4592 292.936 70.8058 292.936 72.2717C292.936 73.7376 293.179 75.0799 293.665 76.2987C294.159 77.5174 294.879 78.4933 295.825 79.2262C296.771 79.9592 297.926 80.3257 299.29 80.3257ZM320.598 82.4095C318.842 82.4095 317.312 81.9705 316.008 81.0927C314.713 80.2149 313.707 79.0132 312.991 77.4876C312.275 75.962 311.917 74.2234 311.917 72.2717C311.917 70.3029 312.279 68.5515 313.004 67.0174C313.737 65.4833 314.751 64.2816 316.046 63.4123C317.342 62.5345 318.846 62.0955 320.559 62.0955C321.872 62.0955 323.061 62.3512 324.126 62.8626C325.191 63.3654 326.069 64.0771 326.759 64.9975C327.458 65.9095 327.897 66.9748 328.076 68.1935H325.775C325.536 67.0856 324.961 66.1396 324.049 65.3555C323.146 64.5629 321.995 64.1666 320.598 64.1666C319.345 64.1666 318.237 64.5075 317.274 65.1893C316.311 65.8626 315.556 66.8043 315.011 68.0146C314.474 69.2163 314.205 70.6097 314.205 72.195C314.205 73.7887 314.47 75.1992 314.998 76.4265C315.526 77.6453 316.268 78.5998 317.223 79.2901C318.186 79.9805 319.311 80.3257 320.598 80.3257C321.467 80.3257 322.259 80.1637 322.975 79.8399C323.7 79.5075 324.305 79.0387 324.791 78.4336C325.285 77.8285 325.617 77.1083 325.788 76.2731H328.089C327.919 77.4578 327.497 78.5146 326.823 79.4435C326.159 80.364 325.294 81.0884 324.228 81.6168C323.171 82.1453 321.961 82.4095 320.598 82.4095ZM338.45 82.4478C337.266 82.4478 336.183 82.2177 335.203 81.7575C334.223 81.2887 333.443 80.6154 332.864 79.7376C332.284 78.8512 331.995 77.7774 331.995 76.516C331.995 75.5444 332.178 74.7262 332.544 74.0614C332.911 73.3967 333.431 72.8512 334.104 72.4251C334.777 71.9989 335.574 71.6623 336.495 71.4151C337.415 71.168 338.429 70.9762 339.537 70.8399C340.637 70.7035 341.566 70.5842 342.324 70.4819C343.091 70.3796 343.675 70.2177 344.075 69.9961C344.476 69.7745 344.676 69.4166 344.676 68.9222V68.462C344.676 67.1239 344.276 66.0714 343.475 65.3043C342.682 64.5288 341.54 64.141 340.049 64.141C338.634 64.141 337.479 64.4521 336.584 65.0742C335.698 65.6964 335.075 66.4293 334.718 67.2731L332.557 66.4933C333 65.4194 333.614 64.5629 334.398 63.9237C335.182 63.2759 336.06 62.8114 337.031 62.5302C338.003 62.2404 338.987 62.0955 339.985 62.0955C340.735 62.0955 341.514 62.1935 342.324 62.3896C343.142 62.5856 343.901 62.9265 344.6 63.4123C345.299 63.8896 345.865 64.5586 346.3 65.4194C346.735 66.2717 346.952 67.3541 346.952 68.6666V82.0004H344.676V78.8938H344.536C344.263 79.4734 343.858 80.0359 343.321 80.5813C342.784 81.1268 342.111 81.5742 341.301 81.9237C340.492 82.2731 339.541 82.4478 338.45 82.4478ZM338.757 80.364C339.968 80.364 341.016 80.0955 341.902 79.5586C342.789 79.0217 343.47 78.31 343.948 77.4237C344.433 76.5288 344.676 75.5444 344.676 74.4705V71.6325C344.506 71.7944 344.22 71.9393 343.82 72.0671C343.428 72.195 342.972 72.31 342.452 72.4123C341.941 72.506 341.429 72.587 340.918 72.6552C340.406 72.7234 339.946 72.783 339.537 72.8342C338.429 72.9705 337.483 73.1836 336.699 73.4734C335.915 73.7632 335.314 74.1637 334.897 74.6751C334.479 75.1779 334.27 75.8256 334.27 76.6183C334.27 77.8114 334.696 78.7362 335.549 79.3924C336.401 80.0401 337.47 80.364 338.757 80.364ZM360.676 82.4095C358.92 82.4095 357.39 81.9705 356.086 81.0927C354.791 80.2149 353.785 79.0132 353.069 77.4876C352.353 75.962 351.995 74.2234 351.995 72.2717C351.995 70.3029 352.357 68.5515 353.082 67.0174C353.815 65.4833 354.829 64.2816 356.124 63.4123C357.42 62.5345 358.924 62.0955 360.637 62.0955C361.95 62.0955 363.139 62.3512 364.204 62.8626C365.269 63.3654 366.147 64.0771 366.838 64.9975C367.536 65.9095 367.975 66.9748 368.154 68.1935H365.853C365.615 67.0856 365.039 66.1396 364.127 65.3555C363.224 64.5629 362.073 64.1666 360.676 64.1666C359.423 64.1666 358.315 64.5075 357.352 65.1893C356.389 65.8626 355.634 66.8043 355.089 68.0146C354.552 69.2163 354.284 70.6097 354.284 72.195C354.284 73.7887 354.548 75.1992 355.076 76.4265C355.605 77.6453 356.346 78.5998 357.301 79.2901C358.264 79.9805 359.389 80.3257 360.676 80.3257C361.545 80.3257 362.338 80.1637 363.053 79.8399C363.778 79.5075 364.383 79.0387 364.869 78.4336C365.363 77.8285 365.696 77.1083 365.866 76.2731H368.167C367.997 77.4578 367.575 78.5146 366.901 79.4435C366.237 80.364 365.372 81.0884 364.306 81.6168C363.249 82.1453 362.039 82.4095 360.676 82.4095ZM373.07 82.0004V62.364H375.358V82.0004H373.07ZM374.233 58.989C373.764 58.989 373.364 58.8313 373.031 58.516C372.699 58.1921 372.533 57.8043 372.533 57.3526C372.533 56.9009 372.699 56.5174 373.031 56.2021C373.364 55.8782 373.764 55.7163 374.233 55.7163C374.702 55.7163 375.102 55.8782 375.435 56.2021C375.767 56.5174 375.933 56.9009 375.933 57.3526C375.933 57.8043 375.767 58.1921 375.435 58.516C375.102 58.8313 374.702 58.989 374.233 58.989ZM386.861 82.4478C385.676 82.4478 384.594 82.2177 383.613 81.7575C382.633 81.2887 381.854 80.6154 381.274 79.7376C380.694 78.8512 380.405 77.7774 380.405 76.516C380.405 75.5444 380.588 74.7262 380.954 74.0614C381.321 73.3967 381.841 72.8512 382.514 72.4251C383.187 71.9989 383.984 71.6623 384.905 71.4151C385.825 71.168 386.839 70.9762 387.947 70.8399C389.047 70.7035 389.976 70.5842 390.734 70.4819C391.501 70.3796 392.085 70.2177 392.486 69.9961C392.886 69.7745 393.086 69.4166 393.086 68.9222V68.462C393.086 67.1239 392.686 66.0714 391.885 65.3043C391.092 64.5288 389.95 64.141 388.459 64.141C387.044 64.141 385.889 64.4521 384.994 65.0742C384.108 65.6964 383.486 66.4293 383.128 67.2731L380.967 66.4933C381.41 65.4194 382.024 64.5629 382.808 63.9237C383.592 63.2759 384.47 62.8114 385.442 62.5302C386.413 62.2404 387.398 62.0955 388.395 62.0955C389.145 62.0955 389.925 62.1935 390.734 62.3896C391.552 62.5856 392.311 62.9265 393.01 63.4123C393.709 63.8896 394.275 64.5586 394.71 65.4194C395.145 66.2717 395.362 67.3541 395.362 68.6666V82.0004H393.086V78.8938H392.946C392.673 79.4734 392.268 80.0359 391.731 80.5813C391.194 81.1268 390.521 81.5742 389.711 81.9237C388.902 82.2731 387.952 82.4478 386.861 82.4478ZM387.167 80.364C388.378 80.364 389.426 80.0955 390.312 79.5586C391.199 79.0217 391.881 78.31 392.358 77.4237C392.844 76.5288 393.086 75.5444 393.086 74.4705V71.6325C392.916 71.7944 392.631 71.9393 392.23 72.0671C391.838 72.195 391.382 72.31 390.862 72.4123C390.351 72.506 389.839 72.587 389.328 72.6552C388.817 72.7234 388.356 72.783 387.947 72.8342C386.839 72.9705 385.893 73.1836 385.109 73.4734C384.325 73.7632 383.724 74.1637 383.307 74.6751C382.889 75.1779 382.68 75.8256 382.68 76.6183C382.68 77.8114 383.106 78.7362 383.959 79.3924C384.811 80.0401 385.881 80.364 387.167 80.364Z" fill="#5E5E5E"/>
<path d="M251.393 184.92C247.724 184.92 244.225 184.451 240.897 183.512C237.654 182.574 234.668 181.166 231.937 179.288C231.425 178.862 230.956 178.435 230.529 178.008C230.102 177.496 229.761 176.942 229.505 176.344C228.822 174.211 228.353 171.608 228.097 168.536C227.841 165.379 227.756 162.35 227.841 159.448C227.841 158.851 228.054 158.424 228.481 158.168C228.993 157.912 229.59 157.784 230.273 157.784C230.956 157.784 231.468 157.912 231.809 158.168C232.236 158.339 232.534 158.723 232.705 159.32C234.582 165.72 237.313 170.712 240.897 174.296C244.481 177.88 248.534 179.672 253.057 179.672C255.873 179.672 258.262 179.032 260.225 177.752C262.188 176.472 263.681 174.808 264.705 172.76C265.729 170.712 266.241 168.494 266.241 166.104C266.241 163.118 265.686 160.643 264.577 158.68C263.553 156.718 261.974 154.968 259.841 153.432C257.708 151.811 255.02 150.104 251.777 148.312C248.278 146.264 244.865 144.131 241.537 141.912C238.209 139.608 235.478 136.92 233.345 133.848C231.212 130.691 230.145 126.808 230.145 122.2C230.145 117.422 231.34 113.24 233.729 109.656C236.204 105.987 239.617 103.128 243.969 101.08C248.321 99.0324 253.356 98.0084 259.073 98.0084C262.23 98.0084 265.174 98.3497 267.905 99.0324C270.636 99.715 272.812 100.398 274.433 101.08C275.372 101.422 276.054 101.848 276.481 102.36C276.993 102.872 277.377 103.683 277.633 104.792C278.145 106.584 278.572 108.718 278.913 111.192C279.34 113.667 279.553 116.27 279.553 119C279.553 120.024 278.785 120.536 277.249 120.536C276.566 120.536 275.884 120.366 275.201 120.024C274.518 119.683 274.092 119.214 273.921 118.616C272.385 113.667 270.252 109.912 267.521 107.352C264.876 104.792 261.59 103.512 257.665 103.512C255.02 103.512 252.758 103.982 250.881 104.92C249.004 105.774 247.51 107.139 246.401 109.016C245.292 110.808 244.737 113.155 244.737 116.056C244.737 118.275 245.462 120.323 246.913 122.2C248.449 124.078 250.54 125.912 253.185 127.704C255.916 129.496 258.945 131.459 262.273 133.592C266.369 135.982 269.782 138.414 272.513 140.888C275.329 143.278 277.462 145.966 278.913 148.952C280.364 151.854 281.089 155.31 281.089 159.32C281.089 164.952 279.852 169.688 277.377 173.528C274.902 177.283 271.446 180.142 267.009 182.104C262.572 183.982 257.366 184.92 251.393 184.92ZM291.121 183.384C290.438 183.384 289.884 183.256 289.457 183C289.03 182.659 288.817 182.232 288.817 181.72C288.817 181.038 289.073 180.526 289.585 180.184C290.097 179.843 290.694 179.587 291.377 179.416C293.425 178.904 294.876 178.35 295.729 177.752C296.668 177.155 297.137 176.131 297.137 174.68V146.904C297.137 144.174 296.71 142.126 295.857 140.76C295.004 139.395 293.553 138.542 291.505 138.2C291.078 138.115 290.737 137.902 290.481 137.56C290.225 137.134 290.097 136.664 290.097 136.152C290.097 134.958 290.566 134.318 291.505 134.232C295.601 133.379 299.142 132.227 302.129 130.776C305.201 129.24 307.548 128.046 309.169 127.192C310.364 126.595 311.132 126.296 311.473 126.296C312.412 126.296 312.881 126.723 312.881 127.576C312.796 128.771 312.625 130.435 312.369 132.568C312.113 134.616 311.857 136.835 311.601 139.224C311.43 141.528 311.345 143.704 311.345 145.752V174.552C311.345 175.832 311.814 176.814 312.753 177.496C313.692 178.179 315.185 178.819 317.233 179.416C317.916 179.672 318.513 179.971 319.025 180.312C319.537 180.568 319.793 181.038 319.793 181.72C319.793 182.744 319.068 183.256 317.617 183.256C315.996 183.256 314.417 183.214 312.881 183.128C311.43 183.043 309.98 182.958 308.529 182.872C307.164 182.787 305.713 182.744 304.177 182.744C302.726 182.744 301.318 182.787 299.953 182.872C298.588 182.958 297.18 183.043 295.729 183.128C294.364 183.299 292.828 183.384 291.121 183.384ZM303.921 118.872C301.446 118.872 299.356 118.019 297.649 116.312C295.942 114.606 295.089 112.558 295.089 110.168C295.089 107.523 295.942 105.347 297.649 103.64C299.356 101.934 301.446 101.08 303.921 101.08C306.481 101.08 308.614 101.934 310.321 103.64C312.028 105.347 312.881 107.523 312.881 110.168C312.881 112.558 312.028 114.606 310.321 116.312C308.614 118.019 306.481 118.872 303.921 118.872ZM326.487 183.384C325.804 183.384 325.207 183.256 324.695 183C324.183 182.744 323.927 182.36 323.927 181.848C323.927 181.166 324.183 180.654 324.695 180.312C325.292 179.971 326.018 179.63 326.871 179.288C328.151 178.862 329.303 178.392 330.327 177.88C331.436 177.368 331.991 176.216 331.991 174.424V111.96C331.991 109.571 331.607 107.566 330.839 105.944C330.156 104.238 328.748 103.171 326.615 102.744C325.762 102.574 325.335 101.934 325.335 100.824C325.335 99.8004 325.719 99.203 326.487 99.0324C328.62 98.6057 330.796 98.0084 333.015 97.2404C335.319 96.4724 337.452 95.7044 339.415 94.9364C341.463 94.1684 343.17 93.571 344.535 93.1444C345.132 92.8884 345.559 92.7604 345.815 92.7604C346.242 92.7604 346.54 92.931 346.711 93.2724C346.882 93.5284 346.967 93.7844 346.967 94.0404C346.967 94.723 346.839 96.0457 346.583 98.0084C346.327 99.8857 346.199 102.446 346.199 105.688V174.296C346.199 176.088 346.711 177.24 347.735 177.752C348.759 178.264 349.911 178.734 351.191 179.16C352.044 179.502 352.727 179.843 353.239 180.184C353.836 180.526 354.135 181.038 354.135 181.72C354.135 182.232 353.879 182.616 353.367 182.872C352.855 183.128 352.258 183.256 351.575 183.256C349.954 183.256 348.46 183.171 347.095 183C345.73 182.915 344.364 182.872 342.999 182.872C341.719 182.787 340.311 182.744 338.775 182.744C337.324 182.744 335.959 182.787 334.679 182.872C333.484 182.958 332.247 183.043 330.967 183.128C329.687 183.299 328.194 183.384 326.487 183.384ZM384.572 185.688C384.06 185.688 383.505 185.091 382.908 183.896C382.396 182.702 381.927 181.507 381.5 180.312C380.817 178.862 380.135 177.24 379.452 175.448C378.769 173.571 378.087 171.864 377.404 170.328C375.356 165.294 373.223 160.344 371.004 155.48C368.785 150.616 366.567 145.624 364.348 140.504C363.58 138.798 362.641 137.304 361.532 136.024C360.508 134.659 359.271 133.763 357.82 133.336C357.052 132.995 356.455 132.696 356.028 132.44C355.687 132.099 355.516 131.544 355.516 130.776C355.516 130.179 355.857 129.838 356.54 129.752C357.308 129.582 357.948 129.496 358.46 129.496C360.337 129.496 361.788 129.539 362.812 129.624C363.921 129.71 364.945 129.838 365.884 130.008C366.908 130.094 368.273 130.136 369.98 130.136C371.687 130.136 373.137 130.094 374.332 130.008C375.527 129.838 376.764 129.71 378.044 129.624C379.324 129.539 380.903 129.496 382.78 129.496C383.292 129.496 383.889 129.582 384.572 129.752C385.255 129.923 385.596 130.35 385.596 131.032C385.596 131.715 385.297 132.227 384.7 132.568C384.103 132.824 383.463 133.08 382.78 133.336C381.841 133.678 381.116 134.318 380.604 135.256C380.177 136.195 379.964 137.347 379.964 138.712C379.964 139.395 379.964 140.078 379.964 140.76C380.049 141.358 380.22 141.998 380.476 142.68L389.436 165.592C389.521 165.678 389.564 165.72 389.564 165.72C389.649 165.72 389.735 165.678 389.82 165.592L398.14 143.832C398.481 143.064 398.695 142.296 398.78 141.528C398.951 140.76 399.036 140.035 399.036 139.352C399.036 137.816 398.737 136.579 398.14 135.64C397.543 134.616 396.561 133.891 395.196 133.464C394.343 133.123 393.617 132.824 393.02 132.568C392.508 132.227 392.252 131.715 392.252 131.032C392.252 130.435 392.593 130.051 393.276 129.88C393.959 129.624 394.599 129.496 395.196 129.496C396.988 129.582 398.524 129.71 399.804 129.88C401.084 129.966 402.535 130.008 404.156 130.008C405.692 130.008 406.972 129.966 407.996 129.88C409.105 129.71 410.599 129.582 412.476 129.496C413.159 129.496 413.799 129.582 414.396 129.752C415.079 129.923 415.42 130.307 415.42 130.904C415.42 132.014 414.567 132.867 412.86 133.464C411.409 133.976 409.959 134.958 408.508 136.408C407.143 137.859 406.033 139.608 405.18 141.656L395.196 166.36C395.025 166.958 394.727 167.768 394.3 168.792C393.873 169.731 393.404 170.755 392.892 171.864C392.465 172.974 392.039 173.998 391.612 174.936C391.271 175.79 391.015 176.43 390.844 176.856C390.673 177.283 390.332 178.094 389.82 179.288C389.308 180.398 388.753 181.592 388.156 182.872C387.644 184.067 387.175 185.006 386.748 185.688H384.572ZM419.871 183.384C419.188 183.384 418.634 183.256 418.207 183C417.78 182.659 417.567 182.232 417.567 181.72C417.567 181.038 417.823 180.526 418.335 180.184C418.847 179.843 419.444 179.587 420.127 179.416C422.175 178.904 423.626 178.35 424.479 177.752C425.418 177.155 425.887 176.131 425.887 174.68V146.904C425.887 144.174 425.46 142.126 424.607 140.76C423.754 139.395 422.303 138.542 420.255 138.2C419.828 138.115 419.487 137.902 419.231 137.56C418.975 137.134 418.847 136.664 418.847 136.152C418.847 134.958 419.316 134.318 420.255 134.232C424.351 133.379 427.892 132.227 430.879 130.776C433.951 129.24 436.298 128.046 437.919 127.192C439.114 126.595 439.882 126.296 440.223 126.296C441.162 126.296 441.631 126.723 441.631 127.576C441.546 128.771 441.375 130.435 441.119 132.568C440.863 134.616 440.607 136.835 440.351 139.224C440.18 141.528 440.095 143.704 440.095 145.752V174.552C440.095 175.832 440.564 176.814 441.503 177.496C442.442 178.179 443.935 178.819 445.983 179.416C446.666 179.672 447.263 179.971 447.775 180.312C448.287 180.568 448.543 181.038 448.543 181.72C448.543 182.744 447.818 183.256 446.367 183.256C444.746 183.256 443.167 183.214 441.631 183.128C440.18 183.043 438.73 182.958 437.279 182.872C435.914 182.787 434.463 182.744 432.927 182.744C431.476 182.744 430.068 182.787 428.703 182.872C427.338 182.958 425.93 183.043 424.479 183.128C423.114 183.299 421.578 183.384 419.871 183.384ZM432.671 118.872C430.196 118.872 428.106 118.019 426.399 116.312C424.692 114.606 423.839 112.558 423.839 110.168C423.839 107.523 424.692 105.347 426.399 103.64C428.106 101.934 430.196 101.08 432.671 101.08C435.231 101.08 437.364 101.934 439.071 103.64C440.778 105.347 441.631 107.523 441.631 110.168C441.631 112.558 440.778 114.606 439.071 116.312C437.364 118.019 435.231 118.872 432.671 118.872ZM480.709 184.792C475.674 184.792 471.152 183.683 467.141 181.464C463.13 179.16 459.93 176.003 457.541 171.992C455.152 167.982 453.957 163.459 453.957 158.424C453.957 154.499 454.725 150.744 456.261 147.16C457.797 143.576 459.888 140.376 462.533 137.56C465.178 134.744 468.293 132.526 471.877 130.904C475.461 129.198 479.301 128.344 483.397 128.344C488.602 128.344 493.253 129.582 497.349 132.056C501.53 134.446 504.858 137.646 507.333 141.656C509.808 145.667 511.045 150.062 511.045 154.84C511.045 160.131 509.893 165.08 507.589 169.688C505.37 174.211 502 177.88 497.477 180.696C493.04 183.427 487.45 184.792 480.709 184.792ZM483.269 179.8C485.402 179.8 487.28 179.374 488.901 178.52C490.608 177.667 491.973 176.344 492.997 174.552C494.021 172.76 494.704 170.414 495.045 167.512C495.472 164.526 495.685 161.326 495.685 157.912C495.685 153.39 495.088 149.294 493.893 145.624C492.698 141.955 491.034 139.011 488.901 136.792C486.768 134.574 484.25 133.464 481.349 133.464C479.728 133.464 478.234 133.763 476.869 134.36C475.589 134.872 474.394 135.768 473.285 137.048C471.749 138.84 470.682 141.315 470.085 144.472C469.573 147.544 469.317 151.128 469.317 155.224C469.317 159.32 469.914 163.246 471.109 167C472.389 170.755 474.053 173.827 476.101 176.216C478.234 178.606 480.624 179.8 483.269 179.8ZM570.643 184.92C566.974 184.92 563.475 184.451 560.147 183.512C556.904 182.574 553.918 181.166 551.187 179.288C550.675 178.862 550.206 178.435 549.779 178.008C549.352 177.496 549.011 176.942 548.755 176.344C548.072 174.211 547.603 171.608 547.347 168.536C547.091 165.379 547.006 162.35 547.091 159.448C547.091 158.851 547.304 158.424 547.731 158.168C548.243 157.912 548.84 157.784 549.523 157.784C550.206 157.784 550.718 157.912 551.059 158.168C551.486 158.339 551.784 158.723 551.955 159.32C553.832 165.72 556.563 170.712 560.147 174.296C563.731 177.88 567.784 179.672 572.307 179.672C575.123 179.672 577.512 179.032 579.475 177.752C581.438 176.472 582.931 174.808 583.955 172.76C584.979 170.712 585.491 168.494 585.491 166.104C585.491 163.118 584.936 160.643 583.827 158.68C582.803 156.718 581.224 154.968 579.091 153.432C576.958 151.811 574.27 150.104 571.027 148.312C567.528 146.264 564.115 144.131 560.787 141.912C557.459 139.608 554.728 136.92 552.595 133.848C550.462 130.691 549.395 126.808 549.395 122.2C549.395 117.422 550.59 113.24 552.979 109.656C555.454 105.987 558.867 103.128 563.219 101.08C567.571 99.0324 572.606 98.0084 578.323 98.0084C581.48 98.0084 584.424 98.3497 587.155 99.0324C589.886 99.715 592.062 100.398 593.683 101.08C594.622 101.422 595.304 101.848 595.731 102.36C596.243 102.872 596.627 103.683 596.883 104.792C597.395 106.584 597.822 108.718 598.163 111.192C598.59 113.667 598.803 116.27 598.803 119C598.803 120.024 598.035 120.536 596.499 120.536C595.816 120.536 595.134 120.366 594.451 120.024C593.768 119.683 593.342 119.214 593.171 118.616C591.635 113.667 589.502 109.912 586.771 107.352C584.126 104.792 580.84 103.512 576.915 103.512C574.27 103.512 572.008 103.982 570.131 104.92C568.254 105.774 566.76 107.139 565.651 109.016C564.542 110.808 563.987 113.155 563.987 116.056C563.987 118.275 564.712 120.323 566.163 122.2C567.699 124.078 569.79 125.912 572.435 127.704C575.166 129.496 578.195 131.459 581.523 133.592C585.619 135.982 589.032 138.414 591.763 140.888C594.579 143.278 596.712 145.966 598.163 148.952C599.614 151.854 600.339 155.31 600.339 159.32C600.339 164.952 599.102 169.688 596.627 173.528C594.152 177.283 590.696 180.142 586.259 182.104C581.822 183.982 576.616 184.92 570.643 184.92ZM636.459 184.792C631.424 184.792 626.902 183.683 622.891 181.464C618.88 179.16 615.68 176.003 613.291 171.992C610.902 167.982 609.707 163.459 609.707 158.424C609.707 154.499 610.475 150.744 612.011 147.16C613.547 143.576 615.638 140.376 618.283 137.56C620.928 134.744 624.043 132.526 627.627 130.904C631.211 129.198 635.051 128.344 639.147 128.344C644.352 128.344 649.003 129.582 653.099 132.056C657.28 134.446 660.608 137.646 663.083 141.656C665.558 145.667 666.795 150.062 666.795 154.84C666.795 160.131 665.643 165.08 663.339 169.688C661.12 174.211 657.75 177.88 653.227 180.696C648.79 183.427 643.2 184.792 636.459 184.792ZM639.019 179.8C641.152 179.8 643.03 179.374 644.651 178.52C646.358 177.667 647.723 176.344 648.747 174.552C649.771 172.76 650.454 170.414 650.795 167.512C651.222 164.526 651.435 161.326 651.435 157.912C651.435 153.39 650.838 149.294 649.643 145.624C648.448 141.955 646.784 139.011 644.651 136.792C642.518 134.574 640 133.464 637.099 133.464C635.478 133.464 633.984 133.763 632.619 134.36C631.339 134.872 630.144 135.768 629.035 137.048C627.499 138.84 626.432 141.315 625.835 144.472C625.323 147.544 625.067 151.128 625.067 155.224C625.067 159.32 625.664 163.246 626.859 167C628.139 170.755 629.803 173.827 631.851 176.216C633.984 178.606 636.374 179.8 639.019 179.8ZM715.435 185.56C714.752 185.56 714.411 185.176 714.411 184.408C714.411 183.47 714.496 182.147 714.667 180.44C714.923 178.734 715.051 177.368 715.051 176.344C715.051 176.088 715.008 175.875 714.923 175.704C714.923 175.448 714.923 175.278 714.923 175.192C712.278 178.094 709.163 180.44 705.579 182.232C702.08 184.024 698.368 184.92 694.443 184.92C691.712 184.92 689.238 184.195 687.019 182.744C684.886 181.294 683.179 179.288 681.899 176.728C680.704 174.168 680.107 171.182 680.107 167.768V143.192C680.107 141.23 679.723 139.694 678.955 138.584C678.187 137.39 676.822 136.494 674.859 135.896C674.347 135.811 673.878 135.598 673.451 135.256C673.11 134.915 672.939 134.403 672.939 133.72C672.939 133.038 673.11 132.526 673.451 132.184C673.878 131.843 674.347 131.63 674.859 131.544C678.272 131.374 681.216 131.075 683.691 130.648C686.166 130.136 688.811 129.539 691.627 128.856C691.968 128.686 692.31 128.558 692.651 128.472C692.992 128.387 693.334 128.344 693.675 128.344C694.784 128.344 695.296 128.942 695.211 130.136C694.955 132.099 694.742 133.763 694.571 135.128C694.4 136.408 694.315 138.03 694.315 139.992V164.696C694.315 166.744 694.699 168.579 695.467 170.2C696.235 171.822 697.302 173.102 698.667 174.04C700.032 174.979 701.526 175.491 703.147 175.576C704.768 175.576 706.262 175.406 707.627 175.064C709.078 174.723 710.486 173.955 711.851 172.76C712.534 172.248 713.302 171.31 714.155 169.944C715.008 168.494 715.435 166.616 715.435 164.312V142.808C715.435 141.187 715.051 139.907 714.283 138.968C713.6 137.944 712.662 137.176 711.467 136.664C710.358 136.152 709.206 135.896 708.011 135.896C707.072 135.811 706.347 135.598 705.835 135.256C705.323 134.915 705.067 134.232 705.067 133.208C705.067 132.355 705.366 131.758 705.963 131.416C706.56 131.075 707.243 130.904 708.011 130.904C711.766 130.648 714.795 130.435 717.099 130.264C719.403 130.094 721.323 129.88 722.859 129.624C724.48 129.368 726.059 129.027 727.595 128.6C727.851 128.515 728.107 128.472 728.363 128.472C728.704 128.387 728.96 128.344 729.131 128.344C730.326 128.344 730.923 128.814 730.923 129.752C730.923 130.008 730.88 130.307 730.795 130.648C730.795 130.904 730.71 131.203 730.539 131.544C730.454 131.8 730.326 132.526 730.155 133.72C730.07 134.915 729.942 136.152 729.771 137.432C729.686 138.712 729.643 139.694 729.643 140.376V170.072C729.643 172.12 729.856 173.528 730.283 174.296C730.795 175.064 731.35 175.448 731.947 175.448C732.459 175.448 733.184 175.448 734.123 175.448C735.147 175.363 735.872 175.32 736.299 175.32C736.982 175.32 737.536 175.491 737.963 175.832C738.39 176.174 738.603 176.728 738.603 177.496C738.603 178.264 738.432 178.862 738.091 179.288C737.835 179.63 737.323 179.843 736.555 179.928C732.715 180.27 729.302 180.952 726.315 181.976C723.328 182.915 720.726 183.854 718.507 184.792C717.995 184.963 717.44 185.134 716.843 185.304C716.331 185.475 715.862 185.56 715.435 185.56ZM745.127 183.64C744.786 183.64 744.274 183.299 743.591 182.616C742.908 181.848 742.567 181.166 742.567 180.568C742.567 180.142 742.866 179.459 743.463 178.52C744.146 177.496 744.871 176.43 745.639 175.32C746.492 174.126 747.175 173.144 747.687 172.376C749.735 169.134 751.655 166.232 753.447 163.672C755.239 161.027 756.946 158.424 758.567 155.864C760.274 153.219 762.066 150.403 763.943 147.416C765.82 144.43 767.996 140.931 770.471 136.92C770.642 136.664 770.727 136.366 770.727 136.024C770.727 135.683 770.215 135.512 769.191 135.512L760.231 135.384C759.036 135.299 757.97 135.512 757.031 136.024C756.178 136.451 755.367 137.006 754.599 137.688C754.172 138.115 753.618 138.798 752.935 139.736C752.252 140.675 751.527 141.699 750.759 142.808C749.991 143.832 749.308 144.814 748.711 145.752C748.114 146.606 747.644 147.246 747.303 147.672C746.791 148.27 746.023 148.398 744.999 148.056C743.975 147.715 743.548 147.16 743.719 146.392C743.975 145.539 744.316 144.174 744.743 142.296C745.17 140.419 745.554 138.414 745.895 136.28C746.322 134.147 746.535 132.355 746.535 130.904C746.535 130.136 746.834 129.454 747.431 128.856C748.028 128.259 748.583 127.96 749.095 127.96C749.778 127.96 750.546 128.387 751.399 129.24C751.826 129.582 752.594 129.795 753.703 129.88C754.898 129.966 756.092 130.008 757.287 130.008C758.311 130.008 759.292 130.008 760.231 130.008C761.17 129.923 761.938 129.88 762.535 129.88C766.716 129.88 771.026 129.838 775.463 129.752C779.9 129.667 784.21 129.582 788.391 129.496C788.903 129.496 789.33 129.752 789.671 130.264C790.012 130.691 790.226 131.203 790.311 131.8C790.482 132.398 790.439 132.867 790.183 133.208C789.244 134.403 788.391 135.512 787.623 136.536C786.855 137.56 786.002 138.755 785.063 140.12L762.535 175.448C762.194 176.046 762.108 176.515 762.279 176.856C762.535 177.198 763.132 177.368 764.071 177.368H774.439C775.548 177.368 776.615 177.155 777.639 176.728C778.663 176.302 779.687 175.534 780.711 174.424C781.906 173.144 782.972 171.779 783.911 170.328C784.935 168.792 786.172 166.83 787.623 164.44C788.22 163.502 789.031 163.16 790.055 163.416C791.079 163.672 791.591 164.227 791.591 165.08C791.591 165.592 791.42 166.531 791.079 167.896C790.823 169.176 790.482 170.67 790.055 172.376C789.628 174.083 789.159 175.79 788.647 177.496C788.22 179.118 787.836 180.526 787.495 181.72C787.154 183 786.386 183.64 785.191 183.64C783.143 183.64 779.644 183.512 774.695 183.256C769.746 183 763.559 182.872 756.135 182.872C754.172 182.872 752.124 183 749.991 183.256C747.943 183.512 746.322 183.64 745.127 183.64ZM809.126 184.792C807.078 184.792 805.115 184.238 803.238 183.128C801.446 182.019 799.995 180.568 798.886 178.776C797.777 176.984 797.222 175.15 797.222 173.272C797.222 170.371 798.075 168.024 799.782 166.232C801.489 164.355 804.049 162.691 807.462 161.24L819.366 156.12C821.073 155.438 822.097 154.798 822.438 154.2C822.865 153.603 823.078 152.494 823.078 150.872L823.334 143.32C823.419 140.931 822.907 139.011 821.798 137.56C820.774 136.11 819.195 135.384 817.062 135.384C815.953 135.384 814.801 135.598 813.606 136.024C812.411 136.451 811.473 137.006 810.79 137.688C810.449 138.03 810.193 138.499 810.022 139.096C809.937 139.608 809.894 140.12 809.894 140.632C809.894 141.059 809.894 141.614 809.894 142.296C809.979 142.894 810.022 143.448 810.022 143.96C810.022 144.472 809.382 145.112 808.102 145.88C806.822 146.648 805.371 147.331 803.75 147.928C802.129 148.526 800.763 148.824 799.654 148.824C799.057 148.824 798.587 148.611 798.246 148.184C797.905 147.758 797.734 147.246 797.734 146.648C797.734 145.283 798.161 143.918 799.014 142.552C799.953 141.102 801.403 139.566 803.366 137.944C805.499 136.152 807.846 134.574 810.406 133.208C812.966 131.758 815.441 130.606 817.83 129.752C820.305 128.899 822.438 128.472 824.23 128.472C828.326 128.472 831.611 129.838 834.086 132.568C836.561 135.214 837.755 138.712 837.67 143.064L837.03 170.456C836.945 172.334 837.286 173.912 838.054 175.192C838.907 176.472 839.931 177.112 841.126 177.112C842.918 177.112 844.369 176.6 845.478 175.576C845.819 175.235 846.118 175.064 846.374 175.064C846.801 175.064 847.142 175.235 847.398 175.576C847.739 175.832 847.91 176.174 847.91 176.6C847.91 177.539 847.227 178.691 845.862 180.056C844.326 181.592 842.662 182.744 840.87 183.512C839.163 184.366 837.457 184.792 835.75 184.792C831.227 184.792 827.558 182.446 824.742 177.752H824.358C821.542 180.227 818.939 182.019 816.55 183.128C814.246 184.238 811.771 184.792 809.126 184.792ZM816.166 177.112C817.361 177.112 818.385 176.942 819.238 176.6C820.091 176.174 820.817 175.619 821.414 174.936C821.755 174.51 822.011 173.998 822.182 173.4C822.438 172.803 822.609 171.95 822.694 170.84L822.95 162.648C823.035 161.795 822.95 161.24 822.694 160.984C822.438 160.643 822.139 160.472 821.798 160.472C821.627 160.472 821.371 160.515 821.03 160.6C820.689 160.6 820.305 160.728 819.878 160.984C816.721 162.264 814.459 163.63 813.094 165.08C811.729 166.531 811.046 168.408 811.046 170.712C811.046 173.016 811.601 174.68 812.71 175.704C813.819 176.643 814.971 177.112 816.166 177.112Z" fill="#222222"/>
</svg>
