<svg width="851" height="216" viewBox="0 0 851 216" fill="none" xmlns="http://www.w3.org/2000/svg">
<path d="M75.8776 11.5358C117.871 -17.815 155.178 17.8926 157.182 19.6481C157.874 20.2543 162.556 16.7522 162.982 16.4333C167.583 12.9906 170.81 21.3693 169.818 22.2058C167.451 24.2019 149.572 39.276 139.463 46.194C137.555 47.4985 135.564 37.2051 124.932 25.0475C95.5719 -8.52716 53.745 25.8978 81.2428 50.1472C85.8544 54.2139 91.3793 59.0854 152.964 77.652C154.508 78.1169 155.534 75.135 173.933 52.277C179.07 45.8958 179.728 42.1975 183.908 44.7751C190.097 48.5915 184.989 49.8778 180.528 55.6911C163.183 78.2933 162.941 78.0875 161.436 80.0534C159.319 82.8183 210.493 93.9864 198.048 136.43C189.686 164.946 151.759 194.09 146.674 197.997C130.73 210.248 129.982 212.01 126.686 209.299C123.544 206.713 101.72 188.756 83.0651 183.166C80.2591 182.325 80.1823 183.656 57.0299 212.925C54.5253 216.091 52.8945 215.384 44.903 216L44.9 215.949C44.9525 213.61 66.9929 187.494 71.6022 181.409C73.2231 179.269 57.3361 178.451 48.4108 180.303C22.0482 185.774 7.59816 204.839 2.35903 210.97C-0.169771 213.93 0.141318 208.577 0.0777767 207.38C-0.449941 197.439 1.64355 197.832 8.33071 190.511C44.9827 150.387 85.4993 161.711 87.7584 160.754C89.3949 160.058 111.423 131.598 113.422 129.015C118.864 121.983 25.2599 129.69 45.8444 36.3815C46.4902 33.4545 53.3789 33.9478 53.3239 36.9108C52.5913 76.2642 61.5595 83.4323 95.4586 96.6599C98.1027 97.6916 112.834 103.441 129.187 107.659C130.046 107.881 130.525 108.003 136.756 99.5329C139.333 96.0298 92.2845 90.5022 74.7311 73.2839C44.0405 43.1787 70.8233 15.7 75.8776 11.5358ZM144.743 101.811C144.407 102.118 137.851 109.618 138.49 110.453C139.128 111.286 183.929 122.639 169.413 150.349C168.352 152.375 166.522 155.866 150.291 171.575C148.755 173.059 142.736 167.319 144.762 166.086C174.822 147.785 148.162 138.561 123.933 130.793C121.779 130.102 121.798 131.224 98.1598 160.792C97.8343 161.199 97.3594 161.867 97.2916 161.963C95.9475 163.854 98.1115 162.876 100.138 163.995C129.459 171.786 145.155 187.897 148.109 185.4C179.276 159.05 184.926 152.497 183.387 132.772C181.704 111.194 144.919 101.651 144.743 101.811Z" fill="#FDFDFD"/>
<path d="M227.517 82H225.011L234.535 55.8182H237.092L246.616 82H244.11L235.903 58.9247H235.724L227.517 82ZM229.319 71.9645H242.308V74.1122H229.319V71.9645ZM257.7 82.4091C256.089 82.4091 254.678 81.983 253.468 81.1307C252.258 80.2784 251.312 79.0895 250.63 77.5639C249.957 76.0384 249.62 74.2614 249.62 72.233C249.62 70.2131 249.957 68.4446 250.63 66.9276C251.312 65.402 252.262 64.2173 253.481 63.3736C254.7 62.5213 256.119 62.0952 257.738 62.0952C258.931 62.0952 259.924 62.3082 260.717 62.7344C261.509 63.152 262.144 63.6719 262.622 64.294C263.099 64.9162 263.47 65.5213 263.734 66.1094H263.938V55.8182H266.227V82H264.002V78.3565H263.734C263.47 78.9531 263.095 79.5668 262.609 80.1974C262.123 80.8196 261.48 81.3437 260.678 81.7699C259.886 82.196 258.893 82.4091 257.7 82.4091ZM257.968 80.3253C259.238 80.3253 260.321 79.9801 261.215 79.2898C262.11 78.5909 262.792 77.6321 263.261 76.4134C263.738 75.1861 263.977 73.7798 263.977 72.1946C263.977 70.6264 263.742 69.2415 263.274 68.0398C262.805 66.8295 262.123 65.8835 261.228 65.2017C260.333 64.5114 259.247 64.1662 257.968 64.1662C256.656 64.1662 255.548 64.5241 254.644 65.2401C253.749 65.9474 253.068 66.9062 252.599 68.1165C252.139 69.3267 251.909 70.6861 251.909 72.1946C251.909 73.7202 252.143 75.0966 252.612 76.3239C253.08 77.5511 253.762 78.527 254.657 79.2514C255.561 79.9673 256.664 80.3253 257.968 80.3253ZM287.909 62.3636L280.737 82H278.308L271.136 62.3636H273.603L279.433 78.9957H279.612L285.441 62.3636H287.909ZM299.29 82.4091C297.594 82.4091 296.094 81.9787 294.79 81.1179C293.494 80.2571 292.48 79.0682 291.747 77.5511C291.014 76.0256 290.648 74.2656 290.648 72.2713C290.648 70.2599 291.014 68.4915 291.747 66.9659C292.48 65.4318 293.494 64.2386 294.79 63.3864C296.094 62.5256 297.594 62.0952 299.29 62.0952C300.986 62.0952 302.481 62.5256 303.777 63.3864C305.072 64.2472 306.086 65.4403 306.819 66.9659C307.561 68.4915 307.932 70.2599 307.932 72.2713C307.932 74.2656 307.565 76.0256 306.832 77.5511C306.099 79.0682 305.081 80.2571 303.777 81.1179C302.481 81.9787 300.986 82.4091 299.29 82.4091ZM299.29 80.3253C300.653 80.3253 301.808 79.9588 302.754 79.2259C303.7 78.4929 304.416 77.517 304.902 76.2983C305.396 75.0795 305.643 73.7372 305.643 72.2713C305.643 70.8054 305.396 69.4588 304.902 68.2315C304.416 67.0043 303.7 66.0199 302.754 65.2784C301.808 64.5369 300.653 64.1662 299.29 64.1662C297.935 64.1662 296.78 64.5369 295.825 65.2784C294.879 66.0199 294.159 67.0043 293.665 68.2315C293.179 69.4588 292.936 70.8054 292.936 72.2713C292.936 73.7372 293.179 75.0795 293.665 76.2983C294.159 77.517 294.879 78.4929 295.825 79.2259C296.771 79.9588 297.926 80.3253 299.29 80.3253ZM320.598 82.4091C318.842 82.4091 317.312 81.9702 316.008 81.0923C314.713 80.2145 313.707 79.0128 312.991 77.4872C312.275 75.9616 311.917 74.223 311.917 72.2713C311.917 70.3026 312.279 68.5511 313.004 67.017C313.737 65.483 314.751 64.2812 316.046 63.4119C317.342 62.5341 318.846 62.0952 320.559 62.0952C321.872 62.0952 323.061 62.3509 324.126 62.8622C325.191 63.3651 326.069 64.0767 326.759 64.9972C327.458 65.9091 327.897 66.9744 328.076 68.1932H325.775C325.536 67.0852 324.961 66.1392 324.049 65.3551C323.146 64.5625 321.995 64.1662 320.598 64.1662C319.345 64.1662 318.237 64.5071 317.274 65.1889C316.311 65.8622 315.556 66.804 315.011 68.0142C314.474 69.2159 314.205 70.6094 314.205 72.1946C314.205 73.7884 314.47 75.1989 314.998 76.4261C315.526 77.6449 316.268 78.5994 317.223 79.2898C318.186 79.9801 319.311 80.3253 320.598 80.3253C321.467 80.3253 322.259 80.1634 322.975 79.8395C323.7 79.5071 324.305 79.0384 324.791 78.4332C325.285 77.8281 325.617 77.108 325.788 76.2727H328.089C327.919 77.4574 327.497 78.5142 326.823 79.4432C326.159 80.3636 325.294 81.0881 324.228 81.6165C323.171 82.1449 321.961 82.4091 320.598 82.4091ZM338.45 82.4474C337.266 82.4474 336.183 82.2173 335.203 81.7571C334.223 81.2884 333.443 80.6151 332.864 79.7372C332.284 78.8509 331.995 77.777 331.995 76.5156C331.995 75.544 332.178 74.7259 332.544 74.0611C332.911 73.3963 333.431 72.8509 334.104 72.4247C334.777 71.9986 335.574 71.6619 336.495 71.4148C337.415 71.1676 338.429 70.9759 339.537 70.8395C340.637 70.7031 341.566 70.5838 342.324 70.4815C343.091 70.3793 343.675 70.2173 344.075 69.9957C344.476 69.7741 344.676 69.4162 344.676 68.9219V68.4616C344.676 67.1236 344.276 66.071 343.475 65.304C342.682 64.5284 341.54 64.1406 340.049 64.1406C338.634 64.1406 337.479 64.4517 336.584 65.0739C335.698 65.696 335.075 66.429 334.718 67.2727L332.557 66.4929C333 65.419 333.614 64.5625 334.398 63.9233C335.182 63.2756 336.06 62.8111 337.031 62.5298C338.003 62.2401 338.987 62.0952 339.985 62.0952C340.735 62.0952 341.514 62.1932 342.324 62.3892C343.142 62.5852 343.901 62.9261 344.6 63.4119C345.299 63.8892 345.865 64.5582 346.3 65.419C346.735 66.2713 346.952 67.3537 346.952 68.6662V82H344.676V78.8935H344.536C344.263 79.473 343.858 80.0355 343.321 80.581C342.784 81.1264 342.111 81.5739 341.301 81.9233C340.492 82.2727 339.541 82.4474 338.45 82.4474ZM338.757 80.3636C339.968 80.3636 341.016 80.0952 341.902 79.5582C342.789 79.0213 343.47 78.3097 343.948 77.4233C344.433 76.5284 344.676 75.544 344.676 74.4702V71.6321C344.506 71.794 344.22 71.9389 343.82 72.0668C343.428 72.1946 342.972 72.3097 342.452 72.4119C341.941 72.5057 341.429 72.5866 340.918 72.6548C340.406 72.723 339.946 72.7827 339.537 72.8338C338.429 72.9702 337.483 73.1832 336.699 73.473C335.915 73.7628 335.314 74.1634 334.897 74.6747C334.479 75.1776 334.27 75.8253 334.27 76.6179C334.27 77.8111 334.696 78.7358 335.549 79.392C336.401 80.0398 337.47 80.3636 338.757 80.3636ZM360.676 82.4091C358.92 82.4091 357.39 81.9702 356.086 81.0923C354.791 80.2145 353.785 79.0128 353.069 77.4872C352.353 75.9616 351.995 74.223 351.995 72.2713C351.995 70.3026 352.357 68.5511 353.082 67.017C353.815 65.483 354.829 64.2812 356.124 63.4119C357.42 62.5341 358.924 62.0952 360.637 62.0952C361.95 62.0952 363.139 62.3509 364.204 62.8622C365.269 63.3651 366.147 64.0767 366.838 64.9972C367.536 65.9091 367.975 66.9744 368.154 68.1932H365.853C365.615 67.0852 365.039 66.1392 364.127 65.3551C363.224 64.5625 362.073 64.1662 360.676 64.1662C359.423 64.1662 358.315 64.5071 357.352 65.1889C356.389 65.8622 355.634 66.804 355.089 68.0142C354.552 69.2159 354.284 70.6094 354.284 72.1946C354.284 73.7884 354.548 75.1989 355.076 76.4261C355.605 77.6449 356.346 78.5994 357.301 79.2898C358.264 79.9801 359.389 80.3253 360.676 80.3253C361.545 80.3253 362.338 80.1634 363.053 79.8395C363.778 79.5071 364.383 79.0384 364.869 78.4332C365.363 77.8281 365.696 77.108 365.866 76.2727H368.167C367.997 77.4574 367.575 78.5142 366.901 79.4432C366.237 80.3636 365.372 81.0881 364.306 81.6165C363.249 82.1449 362.039 82.4091 360.676 82.4091ZM373.07 82V62.3636H375.358V82H373.07ZM374.233 58.9886C373.764 58.9886 373.364 58.831 373.031 58.5156C372.699 58.1918 372.533 57.804 372.533 57.3523C372.533 56.9006 372.699 56.517 373.031 56.2017C373.364 55.8778 373.764 55.7159 374.233 55.7159C374.702 55.7159 375.102 55.8778 375.435 56.2017C375.767 56.517 375.933 56.9006 375.933 57.3523C375.933 57.804 375.767 58.1918 375.435 58.5156C375.102 58.831 374.702 58.9886 374.233 58.9886ZM386.861 82.4474C385.676 82.4474 384.594 82.2173 383.613 81.7571C382.633 81.2884 381.854 80.6151 381.274 79.7372C380.694 78.8509 380.405 77.777 380.405 76.5156C380.405 75.544 380.588 74.7259 380.954 74.0611C381.321 73.3963 381.841 72.8509 382.514 72.4247C383.187 71.9986 383.984 71.6619 384.905 71.4148C385.825 71.1676 386.839 70.9759 387.947 70.8395C389.047 70.7031 389.976 70.5838 390.734 70.4815C391.501 70.3793 392.085 70.2173 392.486 69.9957C392.886 69.7741 393.086 69.4162 393.086 68.9219V68.4616C393.086 67.1236 392.686 66.071 391.885 65.304C391.092 64.5284 389.95 64.1406 388.459 64.1406C387.044 64.1406 385.889 64.4517 384.994 65.0739C384.108 65.696 383.486 66.429 383.128 67.2727L380.967 66.4929C381.41 65.419 382.024 64.5625 382.808 63.9233C383.592 63.2756 384.47 62.8111 385.442 62.5298C386.413 62.2401 387.398 62.0952 388.395 62.0952C389.145 62.0952 389.925 62.1932 390.734 62.3892C391.552 62.5852 392.311 62.9261 393.01 63.4119C393.709 63.8892 394.275 64.5582 394.71 65.419C395.145 66.2713 395.362 67.3537 395.362 68.6662V82H393.086V78.8935H392.946C392.673 79.473 392.268 80.0355 391.731 80.581C391.194 81.1264 390.521 81.5739 389.711 81.9233C388.902 82.2727 387.952 82.4474 386.861 82.4474ZM387.167 80.3636C388.378 80.3636 389.426 80.0952 390.312 79.5582C391.199 79.0213 391.881 78.3097 392.358 77.4233C392.844 76.5284 393.086 75.544 393.086 74.4702V71.6321C392.916 71.794 392.631 71.9389 392.23 72.0668C391.838 72.1946 391.382 72.3097 390.862 72.4119C390.351 72.5057 389.839 72.5866 389.328 72.6548C388.817 72.723 388.356 72.7827 387.947 72.8338C386.839 72.9702 385.893 73.1832 385.109 73.473C384.325 73.7628 383.724 74.1634 383.307 74.6747C382.889 75.1776 382.68 75.8253 382.68 76.6179C382.68 77.8111 383.106 78.7358 383.959 79.392C384.811 80.0398 385.881 80.3636 387.167 80.3636Z" fill="#9D9D9D"/>
<path d="M251.393 184.92C247.724 184.92 244.225 184.451 240.897 183.512C237.654 182.573 234.668 181.165 231.937 179.288C231.425 178.861 230.956 178.435 230.529 178.008C230.102 177.496 229.761 176.941 229.505 176.344C228.822 174.211 228.353 171.608 228.097 168.536C227.841 165.379 227.756 162.349 227.841 159.448C227.841 158.851 228.054 158.424 228.481 158.168C228.993 157.912 229.59 157.784 230.273 157.784C230.956 157.784 231.468 157.912 231.809 158.168C232.236 158.339 232.534 158.723 232.705 159.32C234.582 165.72 237.313 170.712 240.897 174.296C244.481 177.88 248.534 179.672 253.057 179.672C255.873 179.672 258.262 179.032 260.225 177.752C262.188 176.472 263.681 174.808 264.705 172.76C265.729 170.712 266.241 168.493 266.241 166.104C266.241 163.117 265.686 160.643 264.577 158.68C263.553 156.717 261.974 154.968 259.841 153.432C257.708 151.811 255.02 150.104 251.777 148.312C248.278 146.264 244.865 144.131 241.537 141.912C238.209 139.608 235.478 136.92 233.345 133.848C231.212 130.691 230.145 126.808 230.145 122.2C230.145 117.421 231.34 113.24 233.729 109.656C236.204 105.987 239.617 103.128 243.969 101.08C248.321 99.032 253.356 98.008 259.073 98.008C262.23 98.008 265.174 98.3493 267.905 99.032C270.636 99.7147 272.812 100.397 274.433 101.08C275.372 101.421 276.054 101.848 276.481 102.36C276.993 102.872 277.377 103.683 277.633 104.792C278.145 106.584 278.572 108.717 278.913 111.192C279.34 113.667 279.553 116.269 279.553 119C279.553 120.024 278.785 120.536 277.249 120.536C276.566 120.536 275.884 120.365 275.201 120.024C274.518 119.683 274.092 119.213 273.921 118.616C272.385 113.667 270.252 109.912 267.521 107.352C264.876 104.792 261.59 103.512 257.665 103.512C255.02 103.512 252.758 103.981 250.881 104.92C249.004 105.773 247.51 107.139 246.401 109.016C245.292 110.808 244.737 113.155 244.737 116.056C244.737 118.275 245.462 120.323 246.913 122.2C248.449 124.077 250.54 125.912 253.185 127.704C255.916 129.496 258.945 131.459 262.273 133.592C266.369 135.981 269.782 138.413 272.513 140.888C275.329 143.277 277.462 145.965 278.913 148.952C280.364 151.853 281.089 155.309 281.089 159.32C281.089 164.952 279.852 169.688 277.377 173.528C274.902 177.283 271.446 180.141 267.009 182.104C262.572 183.981 257.366 184.92 251.393 184.92ZM291.121 183.384C290.438 183.384 289.884 183.256 289.457 183C289.03 182.659 288.817 182.232 288.817 181.72C288.817 181.037 289.073 180.525 289.585 180.184C290.097 179.843 290.694 179.587 291.377 179.416C293.425 178.904 294.876 178.349 295.729 177.752C296.668 177.155 297.137 176.131 297.137 174.68V146.904C297.137 144.173 296.71 142.125 295.857 140.76C295.004 139.395 293.553 138.541 291.505 138.2C291.078 138.115 290.737 137.901 290.481 137.56C290.225 137.133 290.097 136.664 290.097 136.152C290.097 134.957 290.566 134.317 291.505 134.232C295.601 133.379 299.142 132.227 302.129 130.776C305.201 129.24 307.548 128.045 309.169 127.192C310.364 126.595 311.132 126.296 311.473 126.296C312.412 126.296 312.881 126.723 312.881 127.576C312.796 128.771 312.625 130.435 312.369 132.568C312.113 134.616 311.857 136.835 311.601 139.224C311.43 141.528 311.345 143.704 311.345 145.752V174.552C311.345 175.832 311.814 176.813 312.753 177.496C313.692 178.179 315.185 178.819 317.233 179.416C317.916 179.672 318.513 179.971 319.025 180.312C319.537 180.568 319.793 181.037 319.793 181.72C319.793 182.744 319.068 183.256 317.617 183.256C315.996 183.256 314.417 183.213 312.881 183.128C311.43 183.043 309.98 182.957 308.529 182.872C307.164 182.787 305.713 182.744 304.177 182.744C302.726 182.744 301.318 182.787 299.953 182.872C298.588 182.957 297.18 183.043 295.729 183.128C294.364 183.299 292.828 183.384 291.121 183.384ZM303.921 118.872C301.446 118.872 299.356 118.019 297.649 116.312C295.942 114.605 295.089 112.557 295.089 110.168C295.089 107.523 295.942 105.347 297.649 103.64C299.356 101.933 301.446 101.08 303.921 101.08C306.481 101.08 308.614 101.933 310.321 103.64C312.028 105.347 312.881 107.523 312.881 110.168C312.881 112.557 312.028 114.605 310.321 116.312C308.614 118.019 306.481 118.872 303.921 118.872ZM326.487 183.384C325.804 183.384 325.207 183.256 324.695 183C324.183 182.744 323.927 182.36 323.927 181.848C323.927 181.165 324.183 180.653 324.695 180.312C325.292 179.971 326.018 179.629 326.871 179.288C328.151 178.861 329.303 178.392 330.327 177.88C331.436 177.368 331.991 176.216 331.991 174.424V111.96C331.991 109.571 331.607 107.565 330.839 105.944C330.156 104.237 328.748 103.171 326.615 102.744C325.762 102.573 325.335 101.933 325.335 100.824C325.335 99.8 325.719 99.2027 326.487 99.032C328.62 98.6053 330.796 98.008 333.015 97.24C335.319 96.472 337.452 95.704 339.415 94.936C341.463 94.168 343.17 93.5707 344.535 93.144C345.132 92.888 345.559 92.76 345.815 92.76C346.242 92.76 346.54 92.9307 346.711 93.272C346.882 93.528 346.967 93.784 346.967 94.04C346.967 94.7227 346.839 96.0453 346.583 98.008C346.327 99.8853 346.199 102.445 346.199 105.688V174.296C346.199 176.088 346.711 177.24 347.735 177.752C348.759 178.264 349.911 178.733 351.191 179.16C352.044 179.501 352.727 179.843 353.239 180.184C353.836 180.525 354.135 181.037 354.135 181.72C354.135 182.232 353.879 182.616 353.367 182.872C352.855 183.128 352.258 183.256 351.575 183.256C349.954 183.256 348.46 183.171 347.095 183C345.73 182.915 344.364 182.872 342.999 182.872C341.719 182.787 340.311 182.744 338.775 182.744C337.324 182.744 335.959 182.787 334.679 182.872C333.484 182.957 332.247 183.043 330.967 183.128C329.687 183.299 328.194 183.384 326.487 183.384ZM384.572 185.688C384.06 185.688 383.505 185.091 382.908 183.896C382.396 182.701 381.927 181.507 381.5 180.312C380.817 178.861 380.135 177.24 379.452 175.448C378.769 173.571 378.087 171.864 377.404 170.328C375.356 165.293 373.223 160.344 371.004 155.48C368.785 150.616 366.567 145.624 364.348 140.504C363.58 138.797 362.641 137.304 361.532 136.024C360.508 134.659 359.271 133.763 357.82 133.336C357.052 132.995 356.455 132.696 356.028 132.44C355.687 132.099 355.516 131.544 355.516 130.776C355.516 130.179 355.857 129.837 356.54 129.752C357.308 129.581 357.948 129.496 358.46 129.496C360.337 129.496 361.788 129.539 362.812 129.624C363.921 129.709 364.945 129.837 365.884 130.008C366.908 130.093 368.273 130.136 369.98 130.136C371.687 130.136 373.137 130.093 374.332 130.008C375.527 129.837 376.764 129.709 378.044 129.624C379.324 129.539 380.903 129.496 382.78 129.496C383.292 129.496 383.889 129.581 384.572 129.752C385.255 129.923 385.596 130.349 385.596 131.032C385.596 131.715 385.297 132.227 384.7 132.568C384.103 132.824 383.463 133.08 382.78 133.336C381.841 133.677 381.116 134.317 380.604 135.256C380.177 136.195 379.964 137.347 379.964 138.712C379.964 139.395 379.964 140.077 379.964 140.76C380.049 141.357 380.22 141.997 380.476 142.68L389.436 165.592C389.521 165.677 389.564 165.72 389.564 165.72C389.649 165.72 389.735 165.677 389.82 165.592L398.14 143.832C398.481 143.064 398.695 142.296 398.78 141.528C398.951 140.76 399.036 140.035 399.036 139.352C399.036 137.816 398.737 136.579 398.14 135.64C397.543 134.616 396.561 133.891 395.196 133.464C394.343 133.123 393.617 132.824 393.02 132.568C392.508 132.227 392.252 131.715 392.252 131.032C392.252 130.435 392.593 130.051 393.276 129.88C393.959 129.624 394.599 129.496 395.196 129.496C396.988 129.581 398.524 129.709 399.804 129.88C401.084 129.965 402.535 130.008 404.156 130.008C405.692 130.008 406.972 129.965 407.996 129.88C409.105 129.709 410.599 129.581 412.476 129.496C413.159 129.496 413.799 129.581 414.396 129.752C415.079 129.923 415.42 130.307 415.42 130.904C415.42 132.013 414.567 132.867 412.86 133.464C411.409 133.976 409.959 134.957 408.508 136.408C407.143 137.859 406.033 139.608 405.18 141.656L395.196 166.36C395.025 166.957 394.727 167.768 394.3 168.792C393.873 169.731 393.404 170.755 392.892 171.864C392.465 172.973 392.039 173.997 391.612 174.936C391.271 175.789 391.015 176.429 390.844 176.856C390.673 177.283 390.332 178.093 389.82 179.288C389.308 180.397 388.753 181.592 388.156 182.872C387.644 184.067 387.175 185.005 386.748 185.688H384.572ZM419.871 183.384C419.188 183.384 418.634 183.256 418.207 183C417.78 182.659 417.567 182.232 417.567 181.72C417.567 181.037 417.823 180.525 418.335 180.184C418.847 179.843 419.444 179.587 420.127 179.416C422.175 178.904 423.626 178.349 424.479 177.752C425.418 177.155 425.887 176.131 425.887 174.68V146.904C425.887 144.173 425.46 142.125 424.607 140.76C423.754 139.395 422.303 138.541 420.255 138.2C419.828 138.115 419.487 137.901 419.231 137.56C418.975 137.133 418.847 136.664 418.847 136.152C418.847 134.957 419.316 134.317 420.255 134.232C424.351 133.379 427.892 132.227 430.879 130.776C433.951 129.24 436.298 128.045 437.919 127.192C439.114 126.595 439.882 126.296 440.223 126.296C441.162 126.296 441.631 126.723 441.631 127.576C441.546 128.771 441.375 130.435 441.119 132.568C440.863 134.616 440.607 136.835 440.351 139.224C440.18 141.528 440.095 143.704 440.095 145.752V174.552C440.095 175.832 440.564 176.813 441.503 177.496C442.442 178.179 443.935 178.819 445.983 179.416C446.666 179.672 447.263 179.971 447.775 180.312C448.287 180.568 448.543 181.037 448.543 181.72C448.543 182.744 447.818 183.256 446.367 183.256C444.746 183.256 443.167 183.213 441.631 183.128C440.18 183.043 438.73 182.957 437.279 182.872C435.914 182.787 434.463 182.744 432.927 182.744C431.476 182.744 430.068 182.787 428.703 182.872C427.338 182.957 425.93 183.043 424.479 183.128C423.114 183.299 421.578 183.384 419.871 183.384ZM432.671 118.872C430.196 118.872 428.106 118.019 426.399 116.312C424.692 114.605 423.839 112.557 423.839 110.168C423.839 107.523 424.692 105.347 426.399 103.64C428.106 101.933 430.196 101.08 432.671 101.08C435.231 101.08 437.364 101.933 439.071 103.64C440.778 105.347 441.631 107.523 441.631 110.168C441.631 112.557 440.778 114.605 439.071 116.312C437.364 118.019 435.231 118.872 432.671 118.872ZM480.709 184.792C475.674 184.792 471.152 183.683 467.141 181.464C463.13 179.16 459.93 176.003 457.541 171.992C455.152 167.981 453.957 163.459 453.957 158.424C453.957 154.499 454.725 150.744 456.261 147.16C457.797 143.576 459.888 140.376 462.533 137.56C465.178 134.744 468.293 132.525 471.877 130.904C475.461 129.197 479.301 128.344 483.397 128.344C488.602 128.344 493.253 129.581 497.349 132.056C501.53 134.445 504.858 137.645 507.333 141.656C509.808 145.667 511.045 150.061 511.045 154.84C511.045 160.131 509.893 165.08 507.589 169.688C505.37 174.211 502 177.88 497.477 180.696C493.04 183.427 487.45 184.792 480.709 184.792ZM483.269 179.8C485.402 179.8 487.28 179.373 488.901 178.52C490.608 177.667 491.973 176.344 492.997 174.552C494.021 172.76 494.704 170.413 495.045 167.512C495.472 164.525 495.685 161.325 495.685 157.912C495.685 153.389 495.088 149.293 493.893 145.624C492.698 141.955 491.034 139.011 488.901 136.792C486.768 134.573 484.25 133.464 481.349 133.464C479.728 133.464 478.234 133.763 476.869 134.36C475.589 134.872 474.394 135.768 473.285 137.048C471.749 138.84 470.682 141.315 470.085 144.472C469.573 147.544 469.317 151.128 469.317 155.224C469.317 159.32 469.914 163.245 471.109 167C472.389 170.755 474.053 173.827 476.101 176.216C478.234 178.605 480.624 179.8 483.269 179.8ZM570.643 184.92C566.974 184.92 563.475 184.451 560.147 183.512C556.904 182.573 553.918 181.165 551.187 179.288C550.675 178.861 550.206 178.435 549.779 178.008C549.352 177.496 549.011 176.941 548.755 176.344C548.072 174.211 547.603 171.608 547.347 168.536C547.091 165.379 547.006 162.349 547.091 159.448C547.091 158.851 547.304 158.424 547.731 158.168C548.243 157.912 548.84 157.784 549.523 157.784C550.206 157.784 550.718 157.912 551.059 158.168C551.486 158.339 551.784 158.723 551.955 159.32C553.832 165.72 556.563 170.712 560.147 174.296C563.731 177.88 567.784 179.672 572.307 179.672C575.123 179.672 577.512 179.032 579.475 177.752C581.438 176.472 582.931 174.808 583.955 172.76C584.979 170.712 585.491 168.493 585.491 166.104C585.491 163.117 584.936 160.643 583.827 158.68C582.803 156.717 581.224 154.968 579.091 153.432C576.958 151.811 574.27 150.104 571.027 148.312C567.528 146.264 564.115 144.131 560.787 141.912C557.459 139.608 554.728 136.92 552.595 133.848C550.462 130.691 549.395 126.808 549.395 122.2C549.395 117.421 550.59 113.24 552.979 109.656C555.454 105.987 558.867 103.128 563.219 101.08C567.571 99.032 572.606 98.008 578.323 98.008C581.48 98.008 584.424 98.3493 587.155 99.032C589.886 99.7147 592.062 100.397 593.683 101.08C594.622 101.421 595.304 101.848 595.731 102.36C596.243 102.872 596.627 103.683 596.883 104.792C597.395 106.584 597.822 108.717 598.163 111.192C598.59 113.667 598.803 116.269 598.803 119C598.803 120.024 598.035 120.536 596.499 120.536C595.816 120.536 595.134 120.365 594.451 120.024C593.768 119.683 593.342 119.213 593.171 118.616C591.635 113.667 589.502 109.912 586.771 107.352C584.126 104.792 580.84 103.512 576.915 103.512C574.27 103.512 572.008 103.981 570.131 104.92C568.254 105.773 566.76 107.139 565.651 109.016C564.542 110.808 563.987 113.155 563.987 116.056C563.987 118.275 564.712 120.323 566.163 122.2C567.699 124.077 569.79 125.912 572.435 127.704C575.166 129.496 578.195 131.459 581.523 133.592C585.619 135.981 589.032 138.413 591.763 140.888C594.579 143.277 596.712 145.965 598.163 148.952C599.614 151.853 600.339 155.309 600.339 159.32C600.339 164.952 599.102 169.688 596.627 173.528C594.152 177.283 590.696 180.141 586.259 182.104C581.822 183.981 576.616 184.92 570.643 184.92ZM636.459 184.792C631.424 184.792 626.902 183.683 622.891 181.464C618.88 179.16 615.68 176.003 613.291 171.992C610.902 167.981 609.707 163.459 609.707 158.424C609.707 154.499 610.475 150.744 612.011 147.16C613.547 143.576 615.638 140.376 618.283 137.56C620.928 134.744 624.043 132.525 627.627 130.904C631.211 129.197 635.051 128.344 639.147 128.344C644.352 128.344 649.003 129.581 653.099 132.056C657.28 134.445 660.608 137.645 663.083 141.656C665.558 145.667 666.795 150.061 666.795 154.84C666.795 160.131 665.643 165.08 663.339 169.688C661.12 174.211 657.75 177.88 653.227 180.696C648.79 183.427 643.2 184.792 636.459 184.792ZM639.019 179.8C641.152 179.8 643.03 179.373 644.651 178.52C646.358 177.667 647.723 176.344 648.747 174.552C649.771 172.76 650.454 170.413 650.795 167.512C651.222 164.525 651.435 161.325 651.435 157.912C651.435 153.389 650.838 149.293 649.643 145.624C648.448 141.955 646.784 139.011 644.651 136.792C642.518 134.573 640 133.464 637.099 133.464C635.478 133.464 633.984 133.763 632.619 134.36C631.339 134.872 630.144 135.768 629.035 137.048C627.499 138.84 626.432 141.315 625.835 144.472C625.323 147.544 625.067 151.128 625.067 155.224C625.067 159.32 625.664 163.245 626.859 167C628.139 170.755 629.803 173.827 631.851 176.216C633.984 178.605 636.374 179.8 639.019 179.8ZM715.435 185.56C714.752 185.56 714.411 185.176 714.411 184.408C714.411 183.469 714.496 182.147 714.667 180.44C714.923 178.733 715.051 177.368 715.051 176.344C715.051 176.088 715.008 175.875 714.923 175.704C714.923 175.448 714.923 175.277 714.923 175.192C712.278 178.093 709.163 180.44 705.579 182.232C702.08 184.024 698.368 184.92 694.443 184.92C691.712 184.92 689.238 184.195 687.019 182.744C684.886 181.293 683.179 179.288 681.899 176.728C680.704 174.168 680.107 171.181 680.107 167.768V143.192C680.107 141.229 679.723 139.693 678.955 138.584C678.187 137.389 676.822 136.493 674.859 135.896C674.347 135.811 673.878 135.597 673.451 135.256C673.11 134.915 672.939 134.403 672.939 133.72C672.939 133.037 673.11 132.525 673.451 132.184C673.878 131.843 674.347 131.629 674.859 131.544C678.272 131.373 681.216 131.075 683.691 130.648C686.166 130.136 688.811 129.539 691.627 128.856C691.968 128.685 692.31 128.557 692.651 128.472C692.992 128.387 693.334 128.344 693.675 128.344C694.784 128.344 695.296 128.941 695.211 130.136C694.955 132.099 694.742 133.763 694.571 135.128C694.4 136.408 694.315 138.029 694.315 139.992V164.696C694.315 166.744 694.699 168.579 695.467 170.2C696.235 171.821 697.302 173.101 698.667 174.04C700.032 174.979 701.526 175.491 703.147 175.576C704.768 175.576 706.262 175.405 707.627 175.064C709.078 174.723 710.486 173.955 711.851 172.76C712.534 172.248 713.302 171.309 714.155 169.944C715.008 168.493 715.435 166.616 715.435 164.312V142.808C715.435 141.187 715.051 139.907 714.283 138.968C713.6 137.944 712.662 137.176 711.467 136.664C710.358 136.152 709.206 135.896 708.011 135.896C707.072 135.811 706.347 135.597 705.835 135.256C705.323 134.915 705.067 134.232 705.067 133.208C705.067 132.355 705.366 131.757 705.963 131.416C706.56 131.075 707.243 130.904 708.011 130.904C711.766 130.648 714.795 130.435 717.099 130.264C719.403 130.093 721.323 129.88 722.859 129.624C724.48 129.368 726.059 129.027 727.595 128.6C727.851 128.515 728.107 128.472 728.363 128.472C728.704 128.387 728.96 128.344 729.131 128.344C730.326 128.344 730.923 128.813 730.923 129.752C730.923 130.008 730.88 130.307 730.795 130.648C730.795 130.904 730.71 131.203 730.539 131.544C730.454 131.8 730.326 132.525 730.155 133.72C730.07 134.915 729.942 136.152 729.771 137.432C729.686 138.712 729.643 139.693 729.643 140.376V170.072C729.643 172.12 729.856 173.528 730.283 174.296C730.795 175.064 731.35 175.448 731.947 175.448C732.459 175.448 733.184 175.448 734.123 175.448C735.147 175.363 735.872 175.32 736.299 175.32C736.982 175.32 737.536 175.491 737.963 175.832C738.39 176.173 738.603 176.728 738.603 177.496C738.603 178.264 738.432 178.861 738.091 179.288C737.835 179.629 737.323 179.843 736.555 179.928C732.715 180.269 729.302 180.952 726.315 181.976C723.328 182.915 720.726 183.853 718.507 184.792C717.995 184.963 717.44 185.133 716.843 185.304C716.331 185.475 715.862 185.56 715.435 185.56ZM745.127 183.64C744.786 183.64 744.274 183.299 743.591 182.616C742.908 181.848 742.567 181.165 742.567 180.568C742.567 180.141 742.866 179.459 743.463 178.52C744.146 177.496 744.871 176.429 745.639 175.32C746.492 174.125 747.175 173.144 747.687 172.376C749.735 169.133 751.655 166.232 753.447 163.672C755.239 161.027 756.946 158.424 758.567 155.864C760.274 153.219 762.066 150.403 763.943 147.416C765.82 144.429 767.996 140.931 770.471 136.92C770.642 136.664 770.727 136.365 770.727 136.024C770.727 135.683 770.215 135.512 769.191 135.512L760.231 135.384C759.036 135.299 757.97 135.512 757.031 136.024C756.178 136.451 755.367 137.005 754.599 137.688C754.172 138.115 753.618 138.797 752.935 139.736C752.252 140.675 751.527 141.699 750.759 142.808C749.991 143.832 749.308 144.813 748.711 145.752C748.114 146.605 747.644 147.245 747.303 147.672C746.791 148.269 746.023 148.397 744.999 148.056C743.975 147.715 743.548 147.16 743.719 146.392C743.975 145.539 744.316 144.173 744.743 142.296C745.17 140.419 745.554 138.413 745.895 136.28C746.322 134.147 746.535 132.355 746.535 130.904C746.535 130.136 746.834 129.453 747.431 128.856C748.028 128.259 748.583 127.96 749.095 127.96C749.778 127.96 750.546 128.387 751.399 129.24C751.826 129.581 752.594 129.795 753.703 129.88C754.898 129.965 756.092 130.008 757.287 130.008C758.311 130.008 759.292 130.008 760.231 130.008C761.17 129.923 761.938 129.88 762.535 129.88C766.716 129.88 771.026 129.837 775.463 129.752C779.9 129.667 784.21 129.581 788.391 129.496C788.903 129.496 789.33 129.752 789.671 130.264C790.012 130.691 790.226 131.203 790.311 131.8C790.482 132.397 790.439 132.867 790.183 133.208C789.244 134.403 788.391 135.512 787.623 136.536C786.855 137.56 786.002 138.755 785.063 140.12L762.535 175.448C762.194 176.045 762.108 176.515 762.279 176.856C762.535 177.197 763.132 177.368 764.071 177.368H774.439C775.548 177.368 776.615 177.155 777.639 176.728C778.663 176.301 779.687 175.533 780.711 174.424C781.906 173.144 782.972 171.779 783.911 170.328C784.935 168.792 786.172 166.829 787.623 164.44C788.22 163.501 789.031 163.16 790.055 163.416C791.079 163.672 791.591 164.227 791.591 165.08C791.591 165.592 791.42 166.531 791.079 167.896C790.823 169.176 790.482 170.669 790.055 172.376C789.628 174.083 789.159 175.789 788.647 177.496C788.22 179.117 787.836 180.525 787.495 181.72C787.154 183 786.386 183.64 785.191 183.64C783.143 183.64 779.644 183.512 774.695 183.256C769.746 183 763.559 182.872 756.135 182.872C754.172 182.872 752.124 183 749.991 183.256C747.943 183.512 746.322 183.64 745.127 183.64ZM809.126 184.792C807.078 184.792 805.115 184.237 803.238 183.128C801.446 182.019 799.995 180.568 798.886 178.776C797.777 176.984 797.222 175.149 797.222 173.272C797.222 170.371 798.075 168.024 799.782 166.232C801.489 164.355 804.049 162.691 807.462 161.24L819.366 156.12C821.073 155.437 822.097 154.797 822.438 154.2C822.865 153.603 823.078 152.493 823.078 150.872L823.334 143.32C823.419 140.931 822.907 139.011 821.798 137.56C820.774 136.109 819.195 135.384 817.062 135.384C815.953 135.384 814.801 135.597 813.606 136.024C812.411 136.451 811.473 137.005 810.79 137.688C810.449 138.029 810.193 138.499 810.022 139.096C809.937 139.608 809.894 140.12 809.894 140.632C809.894 141.059 809.894 141.613 809.894 142.296C809.979 142.893 810.022 143.448 810.022 143.96C810.022 144.472 809.382 145.112 808.102 145.88C806.822 146.648 805.371 147.331 803.75 147.928C802.129 148.525 800.763 148.824 799.654 148.824C799.057 148.824 798.587 148.611 798.246 148.184C797.905 147.757 797.734 147.245 797.734 146.648C797.734 145.283 798.161 143.917 799.014 142.552C799.953 141.101 801.403 139.565 803.366 137.944C805.499 136.152 807.846 134.573 810.406 133.208C812.966 131.757 815.441 130.605 817.83 129.752C820.305 128.899 822.438 128.472 824.23 128.472C828.326 128.472 831.611 129.837 834.086 132.568C836.561 135.213 837.755 138.712 837.67 143.064L837.03 170.456C836.945 172.333 837.286 173.912 838.054 175.192C838.907 176.472 839.931 177.112 841.126 177.112C842.918 177.112 844.369 176.6 845.478 175.576C845.819 175.235 846.118 175.064 846.374 175.064C846.801 175.064 847.142 175.235 847.398 175.576C847.739 175.832 847.91 176.173 847.91 176.6C847.91 177.539 847.227 178.691 845.862 180.056C844.326 181.592 842.662 182.744 840.87 183.512C839.163 184.365 837.457 184.792 835.75 184.792C831.227 184.792 827.558 182.445 824.742 177.752H824.358C821.542 180.227 818.939 182.019 816.55 183.128C814.246 184.237 811.771 184.792 809.126 184.792ZM816.166 177.112C817.361 177.112 818.385 176.941 819.238 176.6C820.091 176.173 820.817 175.619 821.414 174.936C821.755 174.509 822.011 173.997 822.182 173.4C822.438 172.803 822.609 171.949 822.694 170.84L822.95 162.648C823.035 161.795 822.95 161.24 822.694 160.984C822.438 160.643 822.139 160.472 821.798 160.472C821.627 160.472 821.371 160.515 821.03 160.6C820.689 160.6 820.305 160.728 819.878 160.984C816.721 162.264 814.459 163.629 813.094 165.08C811.729 166.531 811.046 168.408 811.046 170.712C811.046 173.016 811.601 174.68 812.71 175.704C813.819 176.643 814.971 177.112 816.166 177.112Z" fill="#FDFDFD"/>
</svg>
