<svg width="1600" height="1600" viewBox="0 0 1600 1600" fill="none" xmlns="http://www.w3.org/2000/svg">
<path fill-rule="evenodd" clip-rule="evenodd" d="M763.824 0H838.8C859.547 4.14845 859.049 3.61162 879.516 7.29897C1138.86 54.0176 1214.4 308.569 1216.36 309.101C1318.71 336.865 1303.39 399.037 1303.76 510.785C1303.8 523.161 1388.81 555.448 1367.98 645.405C1344.6 746.381 1238.85 726.221 1226.11 723.792C1215.93 721.852 1214.46 807.79 1137.18 906.317C1051.42 1015.67 933.133 1048.79 932.851 1048.91C926.11 1051.6 927.814 1071.89 927.405 1091.72C927.255 1099.03 941.955 1087.86 942.991 1087.07C980.869 1058.29 985.814 1068.69 1057.01 1093.18C1116.11 1113.51 1111.6 1121.88 1116.79 1123.21C1146.84 1130.89 1355.25 1184.19 1362.68 1423.02C1367.45 1576.5 1359.32 1587.96 1351.14 1599.5H1269.92C1229.51 1539.91 1315.65 1556.95 1315.84 1547.82C1317.75 1459.76 1337.53 1281.23 1172.37 1193.08C1084.21 1146.03 1078.59 1183.48 1073.95 1189.36C1032.55 1241.84 991.145 1294.33 949.745 1346.81C920.084 1384.27 896.126 1332.23 886.015 1336.7C831.807 1360.69 829.941 1356.88 826.312 1360.52C818.92 1367.94 824.204 1532.82 824.684 1547.79C824.902 1554.59 829.691 1552.23 1116.84 1552.53C1168.46 1552.59 1200.39 1560.29 1166.82 1599.5H248.36C240.115 1588.3 231.766 1576.97 236.493 1426.13C240.687 1292.28 323.931 1160.43 482.751 1123.47C487.879 1122.28 484.16 1114.39 541.88 1094.58C616.214 1069.06 621.464 1057.78 659.633 1087.02C682.712 1104.7 671.92 1056.79 671.305 1054.07C665.413 1027.91 455.936 1025.23 378.282 726.853C376.985 721.869 277.913 753.577 237.134 663.303C199.726 580.493 281.583 526.561 291.843 519.801C319.515 501.569 236.077 349.391 383.142 309.041C383.308 308.996 477.323 80.3239 512.556 155.321C524.091 179.874 465.551 217.006 437.287 305.075C430.84 325.161 498.994 324.813 499.849 410.812C500.84 510.593 508.406 570.011 420.31 601.672C399.115 609.29 413.101 949.325 723.493 1015.42C1015.19 1077.54 1212.07 790.912 1182.92 607.56C1182.44 604.532 1101.4 574.504 1100.03 507.763C1097.13 366.581 1098.1 351.718 1159.9 315.831C1178.21 305.2 999.956 -99.3042 601.53 101.851C577.458 114.004 545.534 78.3625 586.646 56.2174C669.197 11.7503 671.874 19.1895 763.824 0.00149953L665.569 1318.36C761.26 1229.26 765.343 1227.12 760.668 1223.08C750.495 1214.29 641.828 1132.44 631.447 1124.62C617.227 1113.91 593.643 1125.98 560.439 1137.89C544.854 1143.48 558.655 1149.02 609.618 1217.66C610.92 1219.41 620.96 1232.93 613.45 1244.69C587.151 1285.85 545.351 1210.37 516.041 1173.85C513.101 1170.19 505.662 1160.92 457.548 1179C249.236 1257.3 282.557 1501.64 283.42 1547.85C283.509 1552.64 320.121 1552.54 323.336 1552.54C768.21 1551.41 778.084 1558.27 777.945 1544.82C776.598 1414.6 780.952 1361.86 773.503 1359.72C746.839 1352.06 747.031 1353.28 722.33 1340.14C707.197 1332.08 693.475 1368.42 670.192 1363.3C632.182 1354.95 663.134 1321.03 665.57 1318.36L763.824 0.00374883L406.234 534.091C414.653 549.982 417.991 555.891 431.666 543.965C439.982 536.714 458.432 520.623 452.715 407.666C449.3 340.211 342.525 325.754 342.423 423.309C342.385 460.197 340.863 508.293 345.71 509.661C375.344 518.027 376.591 514.273 406.234 534.091L763.825 0.00374883L1171.05 546.754C1182.17 551.259 1183.43 549.839 1189.23 539.218C1202.54 514.872 1256.61 515.583 1256.81 501.402C1257.87 423.528 1269.87 347.063 1185.4 356.926C1174.7 358.175 1147.49 374.629 1146.75 404.478C1143.75 526.38 1151.27 527.402 1171.05 546.754L763.825 0.00374883L843.402 1230.9C922.866 1301.68 923.932 1302.12 925.81 1300.38C937.282 1289.78 935.74 1288.48 1047.33 1147.52C1053.77 1139.39 1019.36 1129.16 988.888 1119.58C977.379 1115.96 951.935 1139.31 907.539 1173.09C870.847 1201 838.172 1221.17 843.402 1230.9L763.825 0.00449859L747.015 1152.75C767.695 1168.79 798.441 1196.73 806.503 1190.42C880.692 1132.43 880.614 1131.12 880.671 1126.3C881.394 1065.34 886.961 1061.97 881.831 1062.14C880.125 1062.2 816.376 1076.3 739.023 1065.58C725.359 1063.69 718.695 1056.45 718.642 1069.9C718.624 1074.4 718.423 1125.57 718.495 1126.13C719.787 1136.38 723.333 1134.21 747.015 1152.75L763.825 0.00449859L1268.32 606.189C1296.38 658.392 1231.21 635.655 1229.42 654.494C1222.35 729.025 1381.59 650.719 1303.84 573.741C1261.7 532.008 1208.87 597.726 1235.4 599.245C1252.86 600.244 1254.44 594.848 1268.32 606.189L763.825 0.00449859L362.354 575.018C289.826 512.282 234.092 656.086 320.084 679.898C373.865 694.79 380.058 646.838 363.843 646.231C359.789 646.08 310.415 644.235 327.238 611.151C338.348 589.304 386.19 609.427 362.354 575.018L763.825 0.00449859L846.71 1296.4C827.664 1280.22 805.08 1258.18 801.35 1258.26C796.448 1258.38 796.267 1259.08 755.33 1298.75C737.787 1315.74 857.553 1322.38 846.71 1296.4L763.825 0.00449859L763.824 0Z" fill="#71717B"/>
<path fill-rule="evenodd" clip-rule="evenodd" d="M540.384 487.339C547.622 481.69 596.623 443.446 648.248 448.136C749.38 457.323 765.993 550.074 776.299 548.145C800.123 543.686 799.702 544.053 823.315 547.418C831.251 548.55 828.912 544.207 836.797 526.931C882.764 426.207 1031.21 420.661 1084.07 520.958C1177 697.298 874.57 831.236 824.57 604.196C820.876 587.422 778.245 588.178 774.487 604.76C719.509 847.362 379.056 675.48 540.385 487.338L699.914 652.958C773.525 566.808 694.634 493.272 635.726 494.587C487.404 497.898 541.335 758.989 699.914 652.958L540.385 487.338L899.875 652.909C1021.36 752.787 1124.46 537.696 985.761 497.821C909.842 475.994 822.552 569.9 899.875 652.909L540.385 487.338L540.384 487.339Z" fill="#71717B"/>
<path fill-rule="evenodd" clip-rule="evenodd" d="M640.389 343.971C624.882 310.348 646.472 306.511 673.601 299.871C786.352 272.275 895.079 293.847 913.939 297.589C995.061 313.685 960.566 343.899 956.366 346.979C937.679 360.682 935.939 350.436 904.14 343.504C751.234 310.17 668.847 365.555 640.39 343.971L640.389 343.971Z" fill="#71717B"/>
<path fill-rule="evenodd" clip-rule="evenodd" d="M699.43 196.812C713.934 191.692 795.232 162.994 891.649 192.892C916.31 200.539 910.425 232.406 891.583 237.826C854.352 248.538 852.334 209.789 719.843 237.832C699.99 242.033 678.168 220.223 699.43 196.812Z" fill="#71717B"/>
</svg>
