<svg width="1600" height="1600" viewBox="0 0 1600 1600" fill="none" xmlns="http://www.w3.org/2000/svg">
<path fill-rule="evenodd" clip-rule="evenodd" d="M1203.19 1568.75C1189.09 1577.17 1187.72 1573.27 657.812 1574.89C604.113 1575.06 631.144 1541.05 616.634 1530.42C607.914 1524.04 88.182 1537.97 70.906 1522.84C63.569 1516.42 64.369 1514.31 64.37 201.563C64.37 194.606 55.773 134.92 86.025 134.124C163.603 132.083 169.341 136.758 169.376 126.534C169.492 92.479 161.741 26.464 188.886 25.38C202.715 24.828 916.053 25.228 960.938 25.108C1008.34 24.982 1006.24 34.901 1060.67 89.333C1250.4 279.063 1253.18 279.591 1253.49 295.329C1255.72 410.245 1248.16 844.224 1258.14 854.373C1259.76 856.018 1328.07 904.158 1291.01 950.544C1290.77 950.848 1255.24 986.078 1254.27 988.908C1253.74 990.435 1251.53 1177.4 1255.51 1182.25C1298.23 1234.27 1522.87 1429.78 1533.92 1479.45C1549.02 1547.38 1464.04 1614.57 1396.08 1547.66C1261.66 1415.3 1258.66 1399.73 1250.37 1413.25C1237.06 1434.97 1150.84 1416.82 1150.08 1429.39C1147.91 1465.4 1179.75 1441.29 1200.35 1471.17C1212.5 1488.78 1215.64 1549.65 1203.19 1568.75L668.488 1012.48C699.361 994.244 701.193 1001.37 726.452 1008.65C730.62 1009.85 730.946 1007.82 938.195 800.696C959.082 779.821 976.946 784.399 965.451 757.232C946.668 712.84 1015.4 662.567 1033.07 659.197C1084.75 649.335 1191.98 803.536 1208.06 802.172C1216.67 801.442 1210.31 361.737 1209.75 323.442C1209.46 303.377 1196.83 314.302 989.113 313.094C957.65 312.911 966.087 290.433 965.373 76.529C965.346 68.321 963.37 68.617 954.687 68.643C699.881 69.4 221.761 68.232 216.755 69.223C212.71 70.024 213.131 72.304 213.134 1329.69C213.134 1364.15 201.366 1380.56 235.939 1380.57C690.283 1380.71 690.45 1379.83 691.683 1378.86C722.305 1354.81 724.556 1359.41 764.064 1359.48C1100.97 1360.12 1107.47 1355.26 1126.75 1370.06C1147.49 1385.97 1159.87 1380.68 1201.58 1380.57C1232.37 1380.49 1207.4 1358.31 1022.72 1174.17C1019.26 1170.72 1016.38 1167.2 1010.57 1173.04C987.787 1195.9 950.725 1229.73 953.136 1236.44C977.985 1305.52 894.628 1349.19 863.917 1339.47C839.8 1331.84 842.676 1326.57 636.924 1119.34C588.659 1070.73 654.856 1025.94 668.489 1012.48L1203.19 1568.76L640.114 1459.21C665.272 1447.02 679.237 1457.28 678.84 1429.78C678.731 1422.24 654.56 1424.32 557.813 1424.32C184.457 1424.32 178.217 1426.58 171.404 1410.49C166.797 1399.62 170.668 216.462 169.311 182.939C169.003 175.341 115.057 176.652 110.403 178.942C107.84 180.203 108.121 181.41 108.121 1232.81C108.121 1478.54 106.248 1485.1 117.192 1485.52C279.397 1491.7 574.312 1486.24 614.054 1485.5C617.015 1485.45 617.944 1485.43 640.113 1459.21L1203.19 1568.76L1156.25 965.661C1162.49 952.965 1146.36 943.216 1034.27 831.354C1012.57 809.695 1011.08 789.588 989.394 811.271C762.174 1038.5 759.577 1040.02 762.398 1044.29C767.517 1052.03 902.856 1185.08 915.189 1197.2C922.048 1203.95 923.664 1195.83 1156.25 965.661L1203.19 1568.76L1049.87 1133.78C1049.45 1140.32 1051.13 1140.75 1305.2 1394.8C1321.78 1411.37 1362.19 1454.54 1366.52 1450.51C1416.03 1404.44 1410.8 1399.86 1410.1 1399.13C1385.49 1373.75 1106.47 1085.84 1095.29 1089C1092.98 1089.66 1093.38 1090.1 1049.87 1133.78L1203.19 1568.76L662.462 1504.73C663.719 1524.68 657.858 1531.1 670.269 1531.14C709.512 1531.28 1153.46 1532.89 1160.81 1531.32C1169.68 1529.43 1170.93 1493.08 1154.66 1492.71C1149.37 1492.59 1046.49 1492.61 829.688 1492.61C673.462 1492.61 667.208 1489.22 662.461 1504.73L1203.19 1568.76L724.941 1408.82C724.114 1411.93 714.358 1448.69 729.661 1448.84C759.608 1449.12 1097.84 1452.36 1104.02 1447.61C1105.89 1446.17 1117.26 1403.44 1085.94 1403.24C1085.88 1403.24 925.167 1403.24 842.189 1403.24C741.011 1403.24 734.033 1401.01 724.941 1408.81L1203.19 1568.76L1218.28 953.285C1230.56 956.602 1263.83 921.961 1253.77 911.839C1237.19 895.157 1054.7 711.533 1045.57 704.269C1038.99 699.037 1000.97 735.97 1009.05 744.189C1041.38 777.087 1201.51 936.585 1218.28 953.285L1203.19 1568.76L862.448 1206.32C703.836 1047.96 704.355 1045.3 698.548 1045.92C632.828 1052.98 671.112 1091.49 674.182 1094.58C860.311 1281.81 858.306 1284.08 877.292 1296.95C881.056 1299.5 910.603 1269.19 913.233 1266.49C920.8 1258.73 878.557 1222.3 862.448 1206.32L1203.19 1568.76L1165.58 256.298C1153.45 243.978 1017.85 106.349 1013.3 102.853C1005.06 96.525 1009.6 265.894 1010.49 267.56C1014.99 276.004 1160.26 270.328 1173.27 269.819C1183.08 269.436 1174.1 265.412 1165.58 256.297L1203.19 1568.76L1203.84 1131.18C1213.01 1135.48 1210.3 1126.06 1209.73 1004.72C1209.68 994.359 1193.68 989.939 1190.08 993.425C1132.92 1048.74 1130.99 1047.97 1130.56 1054.8C1130.37 1057.92 1130.97 1057.99 1203.84 1131.18L1203.19 1568.76L1436.82 1525.24C1493.4 1546.55 1502.63 1492.15 1478.92 1467.94C1476.25 1465.21 1446.49 1434.82 1442.73 1436.92C1441.27 1437.73 1398.03 1480.53 1397.56 1482.48C1395.9 1489.35 1433.33 1522.18 1436.82 1525.24L1203.19 1568.75H1203.19Z" fill="#71717B"/>
<path fill-rule="evenodd" clip-rule="evenodd" d="M393.087 534.303C410.534 530.452 410.536 531.034 685.937 531.034C884.344 531.034 1010.87 531.034 1010.94 531.034C1053.3 531.37 1048.28 574.288 1014.07 574.779C965.32 575.479 643.921 580.094 404.604 574.701C393.05 574.441 367.796 557.418 393.087 534.303Z" fill="#71717B"/>
<path fill-rule="evenodd" clip-rule="evenodd" d="M1014.07 443.747C965.326 443.878 461.53 445.236 404.76 443.902C377.367 443.258 372.737 400.516 407.788 400.23C457.48 399.825 1013.42 395.291 1028.96 402.939C1033.68 405.265 1042.44 414.258 1039.95 426.769C1036.47 444.335 1031.33 440.72 1014.07 443.746V443.747Z" fill="#71717B"/>
<path fill-rule="evenodd" clip-rule="evenodd" d="M387.329 697.306C368.44 649.607 438.561 662.004 482.812 662.004C898.408 662.004 903.404 660.175 910.353 673.746C932.616 717.225 821.493 705.755 814.062 705.755C402.222 705.755 400.534 707.037 387.329 697.306Z" fill="#71717B"/>
<path fill-rule="evenodd" clip-rule="evenodd" d="M437.565 1121.99C515.583 1053.87 557.204 1141.54 546.164 1195.49C540.311 1224.09 560.903 1208.46 651.571 1209.59C684.61 1210.01 679.905 1237.5 673.373 1245.26C665.151 1255.02 663.076 1255.25 514.063 1253.34C442.545 1252.43 526.523 1199.03 497.668 1148.96C470.483 1101.79 428.418 1251.12 410.591 1256.7C367.387 1270.2 381.894 1186.97 437.564 1121.99H437.565Z" fill="#71717B"/>
<path fill-rule="evenodd" clip-rule="evenodd" d="M781.22 306.156C769.499 314.345 768.111 313.18 435.938 313.178C429.021 313.178 377.577 321.063 383.406 286.091C386.7 266.326 396.35 269.426 692.188 269.426C721.656 269.426 807.875 256.853 781.22 306.155V306.156Z" fill="#71717B"/>
<path fill-rule="evenodd" clip-rule="evenodd" d="M771.991 799.762C793.465 844.381 754.21 836.357 551.562 836.357C440.786 836.357 363.82 845.003 385.222 804.314C392.132 791.176 396.717 792.492 729.687 792.606C747.54 792.612 756.818 789.395 771.991 799.761V799.762Z" fill="#71717B"/>
<path fill-rule="evenodd" clip-rule="evenodd" d="M656.297 930.995C676.071 975.79 637.863 967.045 470.313 967.045C460.695 967.045 368.657 978.017 384.342 936.582C391.472 917.747 447.695 923.294 485.938 923.294C641.123 923.294 642.71 921.188 656.297 930.995Z" fill="#71717B"/>
</svg>
